%TF.GenerationSoftware,KiCad,Pcbnew,8.0.5*%
%TF.CreationDate,2024-09-23T23:51:48+09:00*%
%TF.ProjectId,MCU_Unit,4d43555f-556e-4697-942e-6b696361645f,rev?*%
%TF.SameCoordinates,Original*%
%TF.FileFunction,Soldermask,Bot*%
%TF.FilePolarity,Negative*%
%FSLAX46Y46*%
G04 Gerber Fmt 4.6, Leading zero omitted, Abs format (unit mm)*
G04 Created by KiCad (PCBNEW 8.0.5) date 2024-09-23 23:51:48*
%MOMM*%
%LPD*%
G01*
G04 APERTURE LIST*
G04 Aperture macros list*
%AMRoundRect*
0 Rectangle with rounded corners*
0 $1 Rounding radius*
0 $2 $3 $4 $5 $6 $7 $8 $9 X,Y pos of 4 corners*
0 Add a 4 corners polygon primitive as box body*
4,1,4,$2,$3,$4,$5,$6,$7,$8,$9,$2,$3,0*
0 Add four circle primitives for the rounded corners*
1,1,$1+$1,$2,$3*
1,1,$1+$1,$4,$5*
1,1,$1+$1,$6,$7*
1,1,$1+$1,$8,$9*
0 Add four rect primitives between the rounded corners*
20,1,$1+$1,$2,$3,$4,$5,0*
20,1,$1+$1,$4,$5,$6,$7,0*
20,1,$1+$1,$6,$7,$8,$9,0*
20,1,$1+$1,$8,$9,$2,$3,0*%
G04 Aperture macros list end*
%ADD10C,1.500000*%
%ADD11R,1.700000X1.700000*%
%ADD12O,1.700000X1.700000*%
%ADD13C,3.250000*%
%ADD14R,1.500000X1.500000*%
%ADD15C,2.300000*%
%ADD16C,1.600000*%
%ADD17O,1.600000X1.600000*%
%ADD18C,1.400000*%
%ADD19R,3.500000X3.500000*%
%ADD20C,3.500000*%
%ADD21C,0.900000*%
%ADD22C,1.200000*%
%ADD23RoundRect,0.250000X-0.750000X0.600000X-0.750000X-0.600000X0.750000X-0.600000X0.750000X0.600000X0*%
%ADD24O,2.000000X1.700000*%
G04 APERTURE END LIST*
D10*
%TO.C,S1*%
X35200000Y-92050000D03*
X41700000Y-92050000D03*
X35200000Y-96550000D03*
X41700000Y-96550000D03*
%TD*%
D11*
%TO.C,J10*%
X94370000Y-128287500D03*
D12*
X94370000Y-125747500D03*
X91830000Y-128287500D03*
X91830000Y-125747500D03*
X89290000Y-128287500D03*
X89290000Y-125747500D03*
X86750000Y-128287500D03*
X86750000Y-125747500D03*
X84210000Y-128287500D03*
X84210000Y-125747500D03*
X81670000Y-128287500D03*
X81670000Y-125747500D03*
X79130000Y-128287500D03*
X79130000Y-125747500D03*
X76590000Y-128287500D03*
X76590000Y-125747500D03*
X74050000Y-128287500D03*
X74050000Y-125747500D03*
X71510000Y-128287500D03*
X71510000Y-125747500D03*
X68970000Y-128287500D03*
X68970000Y-125747500D03*
X66430000Y-128287500D03*
X66430000Y-125747500D03*
X63890000Y-128287500D03*
X63890000Y-125747500D03*
X61350000Y-128287500D03*
X61350000Y-125747500D03*
X58810000Y-128287500D03*
X58810000Y-125747500D03*
X56270000Y-128287500D03*
X56270000Y-125747500D03*
X53730000Y-128287500D03*
X53730000Y-125747500D03*
X51190000Y-128287500D03*
X51190000Y-125747500D03*
X48650000Y-128287500D03*
X48650000Y-125747500D03*
X46110000Y-128287500D03*
X46110000Y-125747500D03*
%TD*%
%TO.C,J6*%
X97970000Y-125750000D03*
X97970000Y-128290000D03*
X100510000Y-125750000D03*
X100510000Y-128290000D03*
X103050000Y-125750000D03*
X103050000Y-128290000D03*
X105590000Y-125750000D03*
X105590000Y-128290000D03*
X108130000Y-125750000D03*
X108130000Y-128290000D03*
X110670000Y-125750000D03*
X110670000Y-128290000D03*
X113210000Y-125750000D03*
X113210000Y-128290000D03*
X115750000Y-125750000D03*
X115750000Y-128290000D03*
X118290000Y-125750000D03*
X118290000Y-128290000D03*
X120830000Y-125750000D03*
X120830000Y-128290000D03*
X123370000Y-125750000D03*
X123370000Y-128290000D03*
X125910000Y-125750000D03*
X125910000Y-128290000D03*
X128450000Y-125750000D03*
X128450000Y-128290000D03*
X130990000Y-125750000D03*
X130990000Y-128290000D03*
X133530000Y-125750000D03*
X133530000Y-128290000D03*
X136070000Y-125750000D03*
X136070000Y-128290000D03*
X138610000Y-125750000D03*
X138610000Y-128290000D03*
X141150000Y-125750000D03*
X141150000Y-128290000D03*
X143690000Y-125750000D03*
X143690000Y-128290000D03*
X146230000Y-125750000D03*
D11*
X146230000Y-128290000D03*
%TD*%
D13*
%TO.C,J1*%
X201170000Y-58798000D03*
X201170000Y-71498000D03*
D14*
X198630000Y-61588000D03*
D10*
X196850000Y-62604000D03*
X198630000Y-63620000D03*
X196850000Y-64636000D03*
X198630000Y-65652000D03*
X196850000Y-66668000D03*
X198630000Y-67684000D03*
X196850000Y-68700000D03*
D15*
X197740000Y-57018000D03*
X197740000Y-73278000D03*
%TD*%
D16*
%TO.C,R41*%
X194500000Y-120120000D03*
D17*
X194500000Y-130280000D03*
%TD*%
D18*
%TO.C,J13*%
X29975000Y-45650000D03*
X29975000Y-34650000D03*
D19*
X39975000Y-37650000D03*
D20*
X39975000Y-42650000D03*
%TD*%
D21*
%TO.C,J9*%
X199475000Y-89700000D03*
X199475000Y-85300000D03*
%TD*%
%TO.C,J7*%
X199600000Y-109600000D03*
X199600000Y-105200000D03*
%TD*%
D11*
%TO.C,J5*%
X65900000Y-40559432D03*
%TD*%
%TO.C,J4*%
X93596418Y-38917639D03*
%TD*%
%TO.C,J3*%
X98064321Y-54275169D03*
%TD*%
D22*
%TO.C,J2*%
X201200000Y-122100000D03*
D23*
X203200000Y-123700000D03*
D24*
X203200000Y-126200000D03*
%TD*%
M02*
