%TF.GenerationSoftware,KiCad,Pcbnew,8.0.5*%
%TF.CreationDate,2024-09-23T23:51:48+09:00*%
%TF.ProjectId,MCU_Unit,4d43555f-556e-4697-942e-6b696361645f,rev?*%
%TF.SameCoordinates,Original*%
%TF.FileFunction,Copper,L1,Top*%
%TF.FilePolarity,Positive*%
%FSLAX46Y46*%
G04 Gerber Fmt 4.6, Leading zero omitted, Abs format (unit mm)*
G04 Created by KiCad (PCBNEW 8.0.5) date 2024-09-23 23:51:48*
%MOMM*%
%LPD*%
G01*
G04 APERTURE LIST*
G04 Aperture macros list*
%AMRoundRect*
0 Rectangle with rounded corners*
0 $1 Rounding radius*
0 $2 $3 $4 $5 $6 $7 $8 $9 X,Y pos of 4 corners*
0 Add a 4 corners polygon primitive as box body*
4,1,4,$2,$3,$4,$5,$6,$7,$8,$9,$2,$3,0*
0 Add four circle primitives for the rounded corners*
1,1,$1+$1,$2,$3*
1,1,$1+$1,$4,$5*
1,1,$1+$1,$6,$7*
1,1,$1+$1,$8,$9*
0 Add four rect primitives between the rounded corners*
20,1,$1+$1,$2,$3,$4,$5,0*
20,1,$1+$1,$4,$5,$6,$7,0*
20,1,$1+$1,$6,$7,$8,$9,0*
20,1,$1+$1,$8,$9,$2,$3,0*%
G04 Aperture macros list end*
%TA.AperFunction,SMDPad,CuDef*%
%ADD10R,1.700000X0.750000*%
%TD*%
%TA.AperFunction,ComponentPad*%
%ADD11C,1.500000*%
%TD*%
%TA.AperFunction,SMDPad,CuDef*%
%ADD12R,3.000000X1.600000*%
%TD*%
%TA.AperFunction,SMDPad,CuDef*%
%ADD13R,6.000000X6.000000*%
%TD*%
%TA.AperFunction,SMDPad,CuDef*%
%ADD14R,1.600000X3.000000*%
%TD*%
%TA.AperFunction,SMDPad,CuDef*%
%ADD15R,1.850000X4.100000*%
%TD*%
%TA.AperFunction,SMDPad,CuDef*%
%ADD16R,2.790000X0.740000*%
%TD*%
%TA.AperFunction,ComponentPad*%
%ADD17R,1.700000X1.700000*%
%TD*%
%TA.AperFunction,ComponentPad*%
%ADD18O,1.700000X1.700000*%
%TD*%
%TA.AperFunction,SMDPad,CuDef*%
%ADD19R,0.300000X1.000000*%
%TD*%
%TA.AperFunction,SMDPad,CuDef*%
%ADD20R,2.000000X1.300000*%
%TD*%
%TA.AperFunction,SMDPad,CuDef*%
%ADD21R,0.600000X0.900000*%
%TD*%
%TA.AperFunction,ComponentPad*%
%ADD22R,1.500000X1.500000*%
%TD*%
%TA.AperFunction,ComponentPad*%
%ADD23C,2.300000*%
%TD*%
%TA.AperFunction,SMDPad,CuDef*%
%ADD24RoundRect,0.160000X-0.222500X-0.160000X0.222500X-0.160000X0.222500X0.160000X-0.222500X0.160000X0*%
%TD*%
%TA.AperFunction,SMDPad,CuDef*%
%ADD25RoundRect,0.160000X0.160000X-0.222500X0.160000X0.222500X-0.160000X0.222500X-0.160000X-0.222500X0*%
%TD*%
%TA.AperFunction,SMDPad,CuDef*%
%ADD26RoundRect,0.237500X0.287500X0.237500X-0.287500X0.237500X-0.287500X-0.237500X0.287500X-0.237500X0*%
%TD*%
%TA.AperFunction,SMDPad,CuDef*%
%ADD27R,0.950000X1.050000*%
%TD*%
%TA.AperFunction,SMDPad,CuDef*%
%ADD28R,0.450000X1.750000*%
%TD*%
%TA.AperFunction,SMDPad,CuDef*%
%ADD29RoundRect,0.050000X0.362500X0.050000X-0.362500X0.050000X-0.362500X-0.050000X0.362500X-0.050000X0*%
%TD*%
%TA.AperFunction,SMDPad,CuDef*%
%ADD30RoundRect,0.050000X0.050000X0.362500X-0.050000X0.362500X-0.050000X-0.362500X0.050000X-0.362500X0*%
%TD*%
%TA.AperFunction,HeatsinkPad*%
%ADD31R,2.800000X3.800000*%
%TD*%
%TA.AperFunction,SMDPad,CuDef*%
%ADD32RoundRect,0.150000X-0.825000X-0.150000X0.825000X-0.150000X0.825000X0.150000X-0.825000X0.150000X0*%
%TD*%
%TA.AperFunction,SMDPad,CuDef*%
%ADD33RoundRect,0.050000X-0.285000X-0.100000X0.285000X-0.100000X0.285000X0.100000X-0.285000X0.100000X0*%
%TD*%
%TA.AperFunction,SMDPad,CuDef*%
%ADD34R,1.050000X0.950000*%
%TD*%
%TA.AperFunction,SMDPad,CuDef*%
%ADD35RoundRect,0.062500X-0.062500X0.325000X-0.062500X-0.325000X0.062500X-0.325000X0.062500X0.325000X0*%
%TD*%
%TA.AperFunction,SMDPad,CuDef*%
%ADD36RoundRect,0.062500X-0.325000X0.062500X-0.325000X-0.062500X0.325000X-0.062500X0.325000X0.062500X0*%
%TD*%
%TA.AperFunction,HeatsinkPad*%
%ADD37R,2.450000X2.450000*%
%TD*%
%TA.AperFunction,SMDPad,CuDef*%
%ADD38RoundRect,0.075000X-0.662500X-0.075000X0.662500X-0.075000X0.662500X0.075000X-0.662500X0.075000X0*%
%TD*%
%TA.AperFunction,SMDPad,CuDef*%
%ADD39RoundRect,0.075000X-0.075000X-0.662500X0.075000X-0.662500X0.075000X0.662500X-0.075000X0.662500X0*%
%TD*%
%TA.AperFunction,SMDPad,CuDef*%
%ADD40RoundRect,0.237500X-0.250000X-0.237500X0.250000X-0.237500X0.250000X0.237500X-0.250000X0.237500X0*%
%TD*%
%TA.AperFunction,SMDPad,CuDef*%
%ADD41RoundRect,0.237500X-0.237500X0.250000X-0.237500X-0.250000X0.237500X-0.250000X0.237500X0.250000X0*%
%TD*%
%TA.AperFunction,ComponentPad*%
%ADD42C,1.600000*%
%TD*%
%TA.AperFunction,ComponentPad*%
%ADD43O,1.600000X1.600000*%
%TD*%
%TA.AperFunction,SMDPad,CuDef*%
%ADD44RoundRect,0.237500X0.250000X0.237500X-0.250000X0.237500X-0.250000X-0.237500X0.250000X-0.237500X0*%
%TD*%
%TA.AperFunction,SMDPad,CuDef*%
%ADD45RoundRect,0.237500X0.237500X-0.250000X0.237500X0.250000X-0.237500X0.250000X-0.237500X-0.250000X0*%
%TD*%
%TA.AperFunction,ComponentPad*%
%ADD46C,1.400000*%
%TD*%
%TA.AperFunction,ComponentPad*%
%ADD47R,3.500000X3.500000*%
%TD*%
%TA.AperFunction,ComponentPad*%
%ADD48C,3.500000*%
%TD*%
%TA.AperFunction,SMDPad,CuDef*%
%ADD49R,2.500000X0.500000*%
%TD*%
%TA.AperFunction,SMDPad,CuDef*%
%ADD50R,2.500000X2.000000*%
%TD*%
%TA.AperFunction,ComponentPad*%
%ADD51RoundRect,0.250000X-0.750000X0.600000X-0.750000X-0.600000X0.750000X-0.600000X0.750000X0.600000X0*%
%TD*%
%TA.AperFunction,ComponentPad*%
%ADD52O,2.000000X1.700000*%
%TD*%
%TA.AperFunction,SMDPad,CuDef*%
%ADD53RoundRect,0.237500X-0.287500X-0.237500X0.287500X-0.237500X0.287500X0.237500X-0.287500X0.237500X0*%
%TD*%
%TA.AperFunction,SMDPad,CuDef*%
%ADD54RoundRect,0.237500X-0.237500X0.300000X-0.237500X-0.300000X0.237500X-0.300000X0.237500X0.300000X0*%
%TD*%
%TA.AperFunction,SMDPad,CuDef*%
%ADD55RoundRect,0.237500X0.237500X-0.300000X0.237500X0.300000X-0.237500X0.300000X-0.237500X-0.300000X0*%
%TD*%
%TA.AperFunction,SMDPad,CuDef*%
%ADD56RoundRect,0.237500X0.300000X0.237500X-0.300000X0.237500X-0.300000X-0.237500X0.300000X-0.237500X0*%
%TD*%
%TA.AperFunction,SMDPad,CuDef*%
%ADD57RoundRect,0.237500X-0.300000X-0.237500X0.300000X-0.237500X0.300000X0.237500X-0.300000X0.237500X0*%
%TD*%
%TA.AperFunction,SMDPad,CuDef*%
%ADD58RoundRect,0.250001X-0.799999X1.999999X-0.799999X-1.999999X0.799999X-1.999999X0.799999X1.999999X0*%
%TD*%
%TA.AperFunction,SMDPad,CuDef*%
%ADD59RoundRect,0.250001X0.799999X-1.999999X0.799999X1.999999X-0.799999X1.999999X-0.799999X-1.999999X0*%
%TD*%
%TA.AperFunction,SMDPad,CuDef*%
%ADD60RoundRect,0.250000X-0.412500X-0.650000X0.412500X-0.650000X0.412500X0.650000X-0.412500X0.650000X0*%
%TD*%
%TA.AperFunction,SMDPad,CuDef*%
%ADD61RoundRect,0.155000X0.212500X0.155000X-0.212500X0.155000X-0.212500X-0.155000X0.212500X-0.155000X0*%
%TD*%
%TA.AperFunction,ViaPad*%
%ADD62C,0.800000*%
%TD*%
%TA.AperFunction,Conductor*%
%ADD63C,0.200000*%
%TD*%
%TA.AperFunction,Conductor*%
%ADD64C,0.250000*%
%TD*%
%TA.AperFunction,Conductor*%
%ADD65C,0.100000*%
%TD*%
%TA.AperFunction,Conductor*%
%ADD66C,0.075000*%
%TD*%
G04 APERTURE END LIST*
D10*
%TO.P,T1,16,TX1+*%
%TO.N,Net-(T1-TX1+)*%
X176250000Y-60505000D03*
%TO.P,T1,15,CT_4*%
%TO.N,Net-(T1-CT_4)*%
X176250000Y-61775000D03*
%TO.P,T1,14,TX1-*%
%TO.N,Net-(T1-TX1-)*%
X176250000Y-63045000D03*
%TO.P,T1,13,NC_4*%
%TO.N,unconnected-(T1-NC_4-Pad13)*%
X176250000Y-64315000D03*
%TO.P,T1,12,NC_3*%
%TO.N,unconnected-(T1-NC_3-Pad12)*%
X176250000Y-65585000D03*
%TO.P,T1,11,RX1+*%
%TO.N,Net-(T1-RX1+)*%
X176250000Y-66855000D03*
%TO.P,T1,10,CT_3*%
%TO.N,Net-(T1-CT_3)*%
X176250000Y-68125000D03*
%TO.P,T1,9,RX-*%
%TO.N,Net-(T1-RX-)*%
X176250000Y-69395000D03*
%TO.P,T1,8,RD-*%
%TO.N,/Ethernet/RD-*%
X167650000Y-69395000D03*
%TO.P,T1,7,CT_2*%
%TO.N,Net-(T1-CT_1)*%
X167650000Y-68125000D03*
%TO.P,T1,6,RD+*%
%TO.N,/Ethernet/RD+*%
X167650000Y-66855000D03*
%TO.P,T1,5,NC_2*%
%TO.N,unconnected-(T1-NC_2-Pad5)*%
X167650000Y-65585000D03*
%TO.P,T1,4,NC_1*%
%TO.N,unconnected-(T1-NC_1-Pad4)*%
X167650000Y-64315000D03*
%TO.P,T1,3,TD-*%
%TO.N,/Ethernet/TD-*%
X167650000Y-63045000D03*
%TO.P,T1,2,CT_1*%
%TO.N,Net-(T1-CT_1)*%
X167650000Y-61775000D03*
%TO.P,T1,1,TD+*%
%TO.N,/Ethernet/TD+*%
X167650000Y-60505000D03*
%TD*%
D11*
%TO.P,S1,1,COM_1*%
%TO.N,GND*%
X35200000Y-92050000D03*
%TO.P,S1,2,COM_2*%
%TO.N,Net-(S1-COM_2)*%
X41700000Y-92050000D03*
%TO.P,S1,3,NO_1*%
%TO.N,unconnected-(S1-NO_1-Pad3)*%
X35200000Y-96550000D03*
%TO.P,S1,4,NO_2*%
%TO.N,unconnected-(S1-NO_2-Pad4)*%
X41700000Y-96550000D03*
%TD*%
D12*
%TO.P,Q2,1,G*%
%TO.N,Net-(Q2-G)*%
X65900000Y-51175000D03*
D13*
%TO.P,Q2,2,D*%
%TO.N,Net-(Q1-D)*%
X59400000Y-48875000D03*
D12*
%TO.P,Q2,3,S*%
%TO.N,24V_RP*%
X65900000Y-46575000D03*
%TD*%
D14*
%TO.P,Q1,1,G*%
%TO.N,Net-(Q1-G)*%
X53200000Y-42625000D03*
D13*
%TO.P,Q1,2,D*%
%TO.N,Net-(Q1-D)*%
X50900000Y-49125000D03*
D14*
%TO.P,Q1,3,S*%
%TO.N,Net-(J13-Pin_2)*%
X48600000Y-42625000D03*
%TD*%
D15*
%TO.P,L1,1,1*%
%TO.N,Net-(U4-SW)*%
X88125000Y-49150000D03*
%TO.P,L1,2,2*%
%TO.N,+3V3*%
X91775000Y-49150000D03*
%TD*%
D16*
%TO.P,J12,1,1*%
%TO.N,unconnected-(J12-Pad1)*%
X38564355Y-64076075D03*
%TO.P,J12,2,2*%
%TO.N,unconnected-(J12-Pad2)*%
X42634355Y-64076075D03*
%TO.P,J12,3,3*%
%TO.N,+3V3*%
X38564355Y-65346075D03*
%TO.P,J12,4,4*%
%TO.N,SWDIO*%
X42634355Y-65346075D03*
%TO.P,J12,5,5*%
%TO.N,GND*%
X38564355Y-66616075D03*
%TO.P,J12,6,6*%
%TO.N,SWCLK*%
X42634355Y-66616075D03*
%TO.P,J12,7,7*%
%TO.N,GND*%
X38564355Y-67886075D03*
%TO.P,J12,8,8*%
%TO.N,JTDO_SWO*%
X42634355Y-67886075D03*
%TO.P,J12,9,9*%
%TO.N,unconnected-(J12-Pad9)*%
X38564355Y-69156075D03*
%TO.P,J12,10,10*%
%TO.N,JTDI*%
X42634355Y-69156075D03*
%TO.P,J12,11,11*%
%TO.N,GND*%
X38564355Y-70426075D03*
%TO.P,J12,12,12*%
%TO.N,JTRST*%
X42634355Y-70426075D03*
%TO.P,J12,13,13*%
%TO.N,UART5_RX*%
X38564355Y-71696075D03*
%TO.P,J12,14,14*%
%TO.N,UART5_TX*%
X42634355Y-71696075D03*
%TD*%
D17*
%TO.P,J10,1,Pin_1*%
%TO.N,PD0*%
X94370000Y-128287500D03*
D18*
%TO.P,J10,2,Pin_2*%
%TO.N,PD1*%
X94370000Y-125747500D03*
%TO.P,J10,3,Pin_3*%
%TO.N,PD2*%
X91830000Y-128287500D03*
%TO.P,J10,4,Pin_4*%
%TO.N,PD3*%
X91830000Y-125747500D03*
%TO.P,J10,5,Pin_5*%
%TO.N,PD4*%
X89290000Y-128287500D03*
%TO.P,J10,6,Pin_6*%
%TO.N,PD5*%
X89290000Y-125747500D03*
%TO.P,J10,7,Pin_7*%
%TO.N,PD6*%
X86750000Y-128287500D03*
%TO.P,J10,8,Pin_8*%
%TO.N,PD7*%
X86750000Y-125747500D03*
%TO.P,J10,9,Pin_9*%
%TO.N,PD8*%
X84210000Y-128287500D03*
%TO.P,J10,10,Pin_10*%
%TO.N,PD9*%
X84210000Y-125747500D03*
%TO.P,J10,11,Pin_11*%
%TO.N,PD10*%
X81670000Y-128287500D03*
%TO.P,J10,12,Pin_12*%
%TO.N,PD11*%
X81670000Y-125747500D03*
%TO.P,J10,13,Pin_13*%
%TO.N,PD12*%
X79130000Y-128287500D03*
%TO.P,J10,14,Pin_14*%
%TO.N,PD13*%
X79130000Y-125747500D03*
%TO.P,J10,15,Pin_15*%
%TO.N,PD14*%
X76590000Y-128287500D03*
%TO.P,J10,16,Pin_16*%
%TO.N,PD15*%
X76590000Y-125747500D03*
%TO.P,J10,17,Pin_17*%
%TO.N,+3V3*%
X74050000Y-128287500D03*
%TO.P,J10,18,Pin_18*%
X74050000Y-125747500D03*
%TO.P,J10,19,Pin_19*%
X71510000Y-128287500D03*
%TO.P,J10,20,Pin_20*%
X71510000Y-125747500D03*
%TO.P,J10,21,Pin_21*%
%TO.N,GND*%
X68970000Y-128287500D03*
%TO.P,J10,22,Pin_22*%
X68970000Y-125747500D03*
%TO.P,J10,23,Pin_23*%
X66430000Y-128287500D03*
%TO.P,J10,24,Pin_24*%
X66430000Y-125747500D03*
%TO.P,J10,25,Pin_25*%
%TO.N,24V_RP*%
X63890000Y-128287500D03*
%TO.P,J10,26,Pin_26*%
X63890000Y-125747500D03*
%TO.P,J10,27,Pin_27*%
X61350000Y-128287500D03*
%TO.P,J10,28,Pin_28*%
X61350000Y-125747500D03*
%TO.P,J10,29,Pin_29*%
X58810000Y-128287500D03*
%TO.P,J10,30,Pin_30*%
X58810000Y-125747500D03*
%TO.P,J10,31,Pin_31*%
X56270000Y-128287500D03*
%TO.P,J10,32,Pin_32*%
X56270000Y-125747500D03*
%TO.P,J10,33,Pin_33*%
%TO.N,GND*%
X53730000Y-128287500D03*
%TO.P,J10,34,Pin_34*%
X53730000Y-125747500D03*
%TO.P,J10,35,Pin_35*%
X51190000Y-128287500D03*
%TO.P,J10,36,Pin_36*%
X51190000Y-125747500D03*
%TO.P,J10,37,Pin_37*%
X48650000Y-128287500D03*
%TO.P,J10,38,Pin_38*%
X48650000Y-125747500D03*
%TO.P,J10,39,Pin_39*%
X46110000Y-128287500D03*
%TO.P,J10,40,Pin_40*%
X46110000Y-125747500D03*
%TD*%
D19*
%TO.P,J8,1,1*%
%TO.N,unconnected-(J8-Pad1)*%
X91175000Y-104175000D03*
%TO.P,J8,2,2*%
%TO.N,unconnected-(J8-Pad2)*%
X91675000Y-104175000D03*
%TO.P,J8,3,3*%
%TO.N,unconnected-(J8-Pad3)*%
X92175000Y-104175000D03*
%TO.P,J8,4,4*%
%TO.N,unconnected-(J8-Pad4)*%
X92675000Y-104175000D03*
%TO.P,J8,5,5*%
%TO.N,Net-(J8-Pad5)*%
X93175000Y-104175000D03*
%TO.P,J8,6,6*%
%TO.N,unconnected-(J8-Pad6)*%
X93675000Y-104175000D03*
%TO.P,J8,7,7*%
%TO.N,unconnected-(J8-Pad7)*%
X94175000Y-104175000D03*
%TO.P,J8,8,8*%
%TO.N,GND*%
X94675000Y-104175000D03*
%TO.P,J8,9,9*%
%TO.N,+3V3*%
X95175000Y-104175000D03*
%TO.P,J8,10,10*%
%TO.N,SDA_LCD*%
X95675000Y-104175000D03*
%TO.P,J8,11,11*%
%TO.N,SCK_LCD*%
X96175000Y-104175000D03*
%TO.P,J8,12,12*%
%TO.N,A0_LCD*%
X96675000Y-104175000D03*
%TO.P,J8,13,13*%
%TO.N,RESET_LCD*%
X97175000Y-104175000D03*
%TO.P,J8,14,14*%
%TO.N,GND*%
X97675000Y-104175000D03*
%TO.P,J8,15,15*%
%TO.N,CS_LCD*%
X98175000Y-104175000D03*
D20*
%TO.P,J8,MP1,MP1*%
%TO.N,GND*%
X88875000Y-106875000D03*
%TO.P,J8,MP2,MP2*%
X100475000Y-106875000D03*
%TD*%
D18*
%TO.P,J6,40,Pin_40*%
%TO.N,PF15*%
X97970000Y-125750000D03*
%TO.P,J6,39,Pin_39*%
%TO.N,PF14*%
X97970000Y-128290000D03*
%TO.P,J6,38,Pin_38*%
%TO.N,PF13*%
X100510000Y-125750000D03*
%TO.P,J6,37,Pin_37*%
%TO.N,PF12*%
X100510000Y-128290000D03*
%TO.P,J6,36,Pin_36*%
%TO.N,PF11*%
X103050000Y-125750000D03*
%TO.P,J6,35,Pin_35*%
%TO.N,PF10*%
X103050000Y-128290000D03*
%TO.P,J6,34,Pin_34*%
%TO.N,PF9*%
X105590000Y-125750000D03*
%TO.P,J6,33,Pin_33*%
%TO.N,PF8*%
X105590000Y-128290000D03*
%TO.P,J6,32,Pin_32*%
%TO.N,PF7*%
X108130000Y-125750000D03*
%TO.P,J6,31,Pin_31*%
%TO.N,PF6*%
X108130000Y-128290000D03*
%TO.P,J6,30,Pin_30*%
%TO.N,PF5*%
X110670000Y-125750000D03*
%TO.P,J6,29,Pin_29*%
%TO.N,PF4*%
X110670000Y-128290000D03*
%TO.P,J6,28,Pin_28*%
%TO.N,PF3*%
X113210000Y-125750000D03*
%TO.P,J6,27,Pin_27*%
%TO.N,PF2*%
X113210000Y-128290000D03*
%TO.P,J6,26,Pin_26*%
%TO.N,PF1*%
X115750000Y-125750000D03*
%TO.P,J6,25,Pin_25*%
%TO.N,PF0*%
X115750000Y-128290000D03*
%TO.P,J6,24,Pin_24*%
%TO.N,GND*%
X118290000Y-125750000D03*
%TO.P,J6,23,Pin_23*%
X118290000Y-128290000D03*
%TO.P,J6,22,Pin_22*%
X120830000Y-125750000D03*
%TO.P,J6,21,Pin_21*%
X120830000Y-128290000D03*
%TO.P,J6,20,Pin_20*%
%TO.N,+3V3*%
X123370000Y-125750000D03*
%TO.P,J6,19,Pin_19*%
X123370000Y-128290000D03*
%TO.P,J6,18,Pin_18*%
X125910000Y-125750000D03*
%TO.P,J6,17,Pin_17*%
X125910000Y-128290000D03*
%TO.P,J6,16,Pin_16*%
%TO.N,PG15*%
X128450000Y-125750000D03*
%TO.P,J6,15,Pin_15*%
%TO.N,PG14*%
X128450000Y-128290000D03*
%TO.P,J6,14,Pin_14*%
%TO.N,PG13*%
X130990000Y-125750000D03*
%TO.P,J6,13,Pin_13*%
%TO.N,PG12*%
X130990000Y-128290000D03*
%TO.P,J6,12,Pin_12*%
%TO.N,PG11*%
X133530000Y-125750000D03*
%TO.P,J6,11,Pin_11*%
%TO.N,PG10*%
X133530000Y-128290000D03*
%TO.P,J6,10,Pin_10*%
%TO.N,PG9*%
X136070000Y-125750000D03*
%TO.P,J6,9,Pin_9*%
%TO.N,PG8*%
X136070000Y-128290000D03*
%TO.P,J6,8,Pin_8*%
%TO.N,PG7*%
X138610000Y-125750000D03*
%TO.P,J6,7,Pin_7*%
%TO.N,PG6*%
X138610000Y-128290000D03*
%TO.P,J6,6,Pin_6*%
%TO.N,PG5*%
X141150000Y-125750000D03*
%TO.P,J6,5,Pin_5*%
%TO.N,PG4*%
X141150000Y-128290000D03*
%TO.P,J6,4,Pin_4*%
%TO.N,PG3*%
X143690000Y-125750000D03*
%TO.P,J6,3,Pin_3*%
%TO.N,PG2*%
X143690000Y-128290000D03*
%TO.P,J6,2,Pin_2*%
%TO.N,PG1*%
X146230000Y-125750000D03*
D17*
%TO.P,J6,1,Pin_1*%
%TO.N,PG0*%
X146230000Y-128290000D03*
%TD*%
D21*
%TO.P,IC1,1,OUT*%
%TO.N,NRST*%
X50150000Y-95150000D03*
%TO.P,IC1,2,VDD*%
%TO.N,+3V3*%
X49200000Y-95150000D03*
%TO.P,IC1,3,GND*%
%TO.N,GND*%
X48250000Y-95150000D03*
%TO.P,IC1,4,NC_1*%
%TO.N,unconnected-(IC1-NC_1-Pad4)*%
X48250000Y-97950000D03*
%TO.P,IC1,5,NC_2*%
%TO.N,unconnected-(IC1-NC_2-Pad5)*%
X50150000Y-97950000D03*
%TD*%
D22*
%TO.P,J1,1*%
%TO.N,Net-(T1-TX1+)*%
X198630000Y-61588000D03*
D11*
%TO.P,J1,2*%
%TO.N,Net-(T1-TX1-)*%
X196850000Y-62604000D03*
%TO.P,J1,3*%
%TO.N,Net-(T1-RX1+)*%
X198630000Y-63620000D03*
%TO.P,J1,4*%
%TO.N,Net-(J1-Pad4)*%
X196850000Y-64636000D03*
%TO.P,J1,5*%
X198630000Y-65652000D03*
%TO.P,J1,6*%
%TO.N,Net-(T1-RX-)*%
X196850000Y-66668000D03*
%TO.P,J1,7*%
%TO.N,Net-(J1-Pad7)*%
X198630000Y-67684000D03*
%TO.P,J1,8*%
X196850000Y-68700000D03*
D23*
%TO.P,J1,SH*%
%TO.N,Earth*%
X197740000Y-57018000D03*
X197740000Y-73278000D03*
%TD*%
D24*
%TO.P,D11,1,K*%
%TO.N,Net-(D11-K)*%
X161055000Y-36037500D03*
%TO.P,D11,2,A*%
%TO.N,+3.3V*%
X162200000Y-36037500D03*
%TD*%
%TO.P,D10,1,K*%
%TO.N,Net-(D10-K)*%
X158955000Y-31887500D03*
%TO.P,D10,2,A*%
%TO.N,+3.3V*%
X160100000Y-31887500D03*
%TD*%
D25*
%TO.P,D9,1,K*%
%TO.N,Net-(D9-K)*%
X158077500Y-30660000D03*
%TO.P,D9,2,A*%
%TO.N,+3.3V*%
X158077500Y-29515000D03*
%TD*%
%TO.P,D8,1,K*%
%TO.N,Net-(D8-K)*%
X157527500Y-34310000D03*
%TO.P,D8,2,A*%
%TO.N,+3.3V*%
X157527500Y-33165000D03*
%TD*%
D24*
%TO.P,D7,1,K*%
%TO.N,Net-(D7-K)*%
X158205000Y-35537500D03*
%TO.P,D7,2,A*%
%TO.N,+3.3V*%
X159350000Y-35537500D03*
%TD*%
D25*
%TO.P,D6,1,K*%
%TO.N,Net-(D6-K)*%
X160827500Y-34410000D03*
%TO.P,D6,2,A*%
%TO.N,+3.3V*%
X160827500Y-33265000D03*
%TD*%
%TO.P,D5,1,K*%
%TO.N,Net-(D5-K)*%
X161477500Y-30610000D03*
%TO.P,D5,2,A*%
%TO.N,+3.3V*%
X161477500Y-29465000D03*
%TD*%
D24*
%TO.P,D4,1,K*%
%TO.N,Net-(D4-K)*%
X159405000Y-28237500D03*
%TO.P,D4,2,A*%
%TO.N,+3.3V*%
X160550000Y-28237500D03*
%TD*%
%TO.P,D35,1,K*%
%TO.N,Net-(D35-K)*%
X138750000Y-36087500D03*
%TO.P,D35,2,A*%
%TO.N,+3.3V*%
X139895000Y-36087500D03*
%TD*%
%TO.P,D34,1,K*%
%TO.N,Net-(D34-K)*%
X136600000Y-31937500D03*
%TO.P,D34,2,A*%
%TO.N,+3.3V*%
X137745000Y-31937500D03*
%TD*%
D25*
%TO.P,D33,1,K*%
%TO.N,Net-(D33-K)*%
X135750000Y-30682500D03*
%TO.P,D33,2,A*%
%TO.N,+3.3V*%
X135750000Y-29537500D03*
%TD*%
%TO.P,D32,1,K*%
%TO.N,Net-(D32-K)*%
X135150000Y-34432500D03*
%TO.P,D32,2,A*%
%TO.N,+3.3V*%
X135150000Y-33287500D03*
%TD*%
D24*
%TO.P,D31,1,K*%
%TO.N,Net-(D31-K)*%
X135850000Y-35637500D03*
%TO.P,D31,2,A*%
%TO.N,+3.3V*%
X136995000Y-35637500D03*
%TD*%
D25*
%TO.P,D30,1,K*%
%TO.N,Net-(D30-K)*%
X138500000Y-34560000D03*
%TO.P,D30,2,A*%
%TO.N,+3.3V*%
X138500000Y-33415000D03*
%TD*%
%TO.P,D29,1,K*%
%TO.N,Net-(D29-K)*%
X139150000Y-30810000D03*
%TO.P,D29,2,A*%
%TO.N,+3.3V*%
X139150000Y-29665000D03*
%TD*%
D24*
%TO.P,D28,1,K*%
%TO.N,Net-(D28-K)*%
X137100000Y-28437500D03*
%TO.P,D28,2,A*%
%TO.N,+3.3V*%
X138245000Y-28437500D03*
%TD*%
%TO.P,D27,1,K*%
%TO.N,Net-(D27-K)*%
X146455000Y-36087500D03*
%TO.P,D27,2,A*%
%TO.N,+3.3V*%
X147600000Y-36087500D03*
%TD*%
%TO.P,D26,1,K*%
%TO.N,Net-(D26-K)*%
X144300000Y-31937500D03*
%TO.P,D26,2,A*%
%TO.N,+3.3V*%
X145445000Y-31937500D03*
%TD*%
D25*
%TO.P,D25,1,K*%
%TO.N,Net-(D25-K)*%
X143500000Y-30682500D03*
%TO.P,D25,2,A*%
%TO.N,+3.3V*%
X143500000Y-29537500D03*
%TD*%
%TO.P,D24,1,K*%
%TO.N,Net-(D24-K)*%
X142850000Y-34282500D03*
%TO.P,D24,2,A*%
%TO.N,+3.3V*%
X142850000Y-33137500D03*
%TD*%
D24*
%TO.P,D23,1,K*%
%TO.N,Net-(D23-K)*%
X143500000Y-35637500D03*
%TO.P,D23,2,A*%
%TO.N,+3.3V*%
X144645000Y-35637500D03*
%TD*%
D25*
%TO.P,D22,1,K*%
%TO.N,Net-(D22-K)*%
X146200000Y-34532500D03*
%TO.P,D22,2,A*%
%TO.N,+3.3V*%
X146200000Y-33387500D03*
%TD*%
%TO.P,D21,1,K*%
%TO.N,Net-(D21-K)*%
X146800000Y-30782500D03*
%TO.P,D21,2,A*%
%TO.N,+3.3V*%
X146800000Y-29637500D03*
%TD*%
D24*
%TO.P,D20,1,K*%
%TO.N,Net-(D20-K)*%
X144750000Y-28437500D03*
%TO.P,D20,2,A*%
%TO.N,+3.3V*%
X145895000Y-28437500D03*
%TD*%
%TO.P,D19,1,K*%
%TO.N,Net-(D19-K)*%
X153655000Y-36037500D03*
%TO.P,D19,2,A*%
%TO.N,+3.3V*%
X154800000Y-36037500D03*
%TD*%
%TO.P,D18,1,K*%
%TO.N,Net-(D18-K)*%
X151515316Y-31928719D03*
%TO.P,D18,2,A*%
%TO.N,+3.3V*%
X152660316Y-31928719D03*
%TD*%
D25*
%TO.P,D17,1,K*%
%TO.N,Net-(D17-K)*%
X150715316Y-30673719D03*
%TO.P,D17,2,A*%
%TO.N,+3.3V*%
X150715316Y-29528719D03*
%TD*%
%TO.P,D16,1,K*%
%TO.N,Net-(D16-K)*%
X150015316Y-34323719D03*
%TO.P,D16,2,A*%
%TO.N,+3.3V*%
X150015316Y-33178719D03*
%TD*%
D24*
%TO.P,D15,2,A*%
%TO.N,+3.3V*%
X152057816Y-35628719D03*
%TO.P,D15,1,K*%
%TO.N,Net-(D15-K)*%
X150912816Y-35628719D03*
%TD*%
D25*
%TO.P,D14,1,K*%
%TO.N,Net-(D14-K)*%
X153415316Y-34551219D03*
%TO.P,D14,2,A*%
%TO.N,+3.3V*%
X153415316Y-33406219D03*
%TD*%
%TO.P,D13,1,K*%
%TO.N,Net-(D13-K)*%
X154115316Y-30823719D03*
%TO.P,D13,2,A*%
%TO.N,+3.3V*%
X154115316Y-29678719D03*
%TD*%
D24*
%TO.P,D12,1,K*%
%TO.N,Net-(D12-K)*%
X152062816Y-28378719D03*
%TO.P,D12,2,A*%
%TO.N,+3.3V*%
X153207816Y-28378719D03*
%TD*%
D26*
%TO.P,D2,1,K*%
%TO.N,Net-(D2-K)*%
X160675000Y-55800000D03*
%TO.P,D2,2,A*%
%TO.N,Net-(D2-A)*%
X158925000Y-55800000D03*
%TD*%
%TO.P,D1,1,K*%
%TO.N,Net-(D1-K)*%
X160675000Y-57400000D03*
%TO.P,D1,2,A*%
%TO.N,Net-(D1-A)*%
X158925000Y-57400000D03*
%TD*%
D27*
%TO.P,U8,1,INH*%
%TO.N,+3V3*%
X57175000Y-89775000D03*
%TO.P,U8,2,GND*%
%TO.N,GND*%
X57175000Y-91625000D03*
%TO.P,U8,3,CLK*%
%TO.N,HSE*%
X58625000Y-91625000D03*
%TO.P,U8,4,VCC*%
%TO.N,+3V3*%
X58625000Y-89775000D03*
%TD*%
D28*
%TO.P,U7,1,TXD*%
%TO.N,USART6_RX*%
X181875000Y-91500000D03*
%TO.P,U7,2,DTR*%
%TO.N,unconnected-(U7-DTR-Pad2)*%
X182525000Y-91500000D03*
%TO.P,U7,3,RTS*%
%TO.N,unconnected-(U7-RTS-Pad3)*%
X183175000Y-91500000D03*
%TO.P,U7,4,VCCIO*%
%TO.N,+3V3*%
X183825000Y-91500000D03*
%TO.P,U7,5,RXD*%
%TO.N,USART6_TX*%
X184475000Y-91500000D03*
%TO.P,U7,6,RI*%
%TO.N,unconnected-(U7-RI-Pad6)*%
X185125000Y-91500000D03*
%TO.P,U7,7,GND*%
%TO.N,GND*%
X185775000Y-91500000D03*
%TO.P,U7,8*%
%TO.N,N/C*%
X186425000Y-91500000D03*
%TO.P,U7,9,DCR*%
%TO.N,unconnected-(U7-DCR-Pad9)*%
X187075000Y-91500000D03*
%TO.P,U7,10,DCD*%
%TO.N,unconnected-(U7-DCD-Pad10)*%
X187725000Y-91500000D03*
%TO.P,U7,11,CTS*%
%TO.N,unconnected-(U7-CTS-Pad11)*%
X188375000Y-91500000D03*
%TO.P,U7,12,CBUS4*%
%TO.N,unconnected-(U7-CBUS4-Pad12)*%
X189025000Y-91500000D03*
%TO.P,U7,13,CBUS2*%
%TO.N,unconnected-(U7-CBUS2-Pad13)*%
X189675000Y-91500000D03*
%TO.P,U7,14,CBUS3*%
%TO.N,unconnected-(U7-CBUS3-Pad14)*%
X190325000Y-91500000D03*
%TO.P,U7,15,USBD+*%
%TO.N,Net-(J9-D+)*%
X190325000Y-84300000D03*
%TO.P,U7,16,USBD-*%
%TO.N,Net-(J9-D-)*%
X189675000Y-84300000D03*
%TO.P,U7,17,3V3OUT*%
%TO.N,unconnected-(U7-3V3OUT-Pad17)*%
X189025000Y-84300000D03*
%TO.P,U7,18,GND*%
%TO.N,GND*%
X188375000Y-84300000D03*
%TO.P,U7,19,~{RESET}*%
%TO.N,unconnected-(U7-~{RESET}-Pad19)*%
X187725000Y-84300000D03*
%TO.P,U7,20,VCC*%
%TO.N,+3V3*%
X187075000Y-84300000D03*
%TO.P,U7,21,GND*%
%TO.N,GND*%
X186425000Y-84300000D03*
%TO.P,U7,22,CBUS1*%
%TO.N,unconnected-(U7-CBUS1-Pad22)*%
X185775000Y-84300000D03*
%TO.P,U7,23,CBUS0*%
%TO.N,unconnected-(U7-CBUS0-Pad23)*%
X185125000Y-84300000D03*
%TO.P,U7,24*%
%TO.N,N/C*%
X184475000Y-84300000D03*
%TO.P,U7,25,AGND*%
%TO.N,GND*%
X183825000Y-84300000D03*
%TO.P,U7,26,TEST*%
%TO.N,unconnected-(U7-TEST-Pad26)*%
X183175000Y-84300000D03*
%TO.P,U7,27,OSCI*%
%TO.N,unconnected-(U7-OSCI-Pad27)*%
X182525000Y-84300000D03*
%TO.P,U7,28,OSCO*%
%TO.N,unconnected-(U7-OSCO-Pad28)*%
X181875000Y-84300000D03*
%TD*%
D29*
%TO.P,U6,1,OUT0*%
%TO.N,Net-(D4-K)*%
X150462500Y-47300000D03*
%TO.P,U6,2,OUT1*%
%TO.N,Net-(D5-K)*%
X150462500Y-46900000D03*
%TO.P,U6,3,OUT2*%
%TO.N,Net-(D6-K)*%
X150462500Y-46500000D03*
%TO.P,U6,4,OUT3*%
%TO.N,Net-(D7-K)*%
X150462500Y-46100000D03*
%TO.P,U6,5,OUT4*%
%TO.N,Net-(D8-K)*%
X150462500Y-45700000D03*
%TO.P,U6,6,OUT5*%
%TO.N,Net-(D9-K)*%
X150462500Y-45300000D03*
%TO.P,U6,7,OUT6*%
%TO.N,Net-(D10-K)*%
X150462500Y-44900000D03*
%TO.P,U6,8,OUT7*%
%TO.N,Net-(D11-K)*%
X150462500Y-44500000D03*
%TO.P,U6,9,OUT8*%
%TO.N,Net-(D12-K)*%
X150462500Y-44100000D03*
%TO.P,U6,10,OUT9*%
%TO.N,Net-(D13-K)*%
X150462500Y-43700000D03*
%TO.P,U6,11,OUT10*%
%TO.N,Net-(D14-K)*%
X150462500Y-43300000D03*
%TO.P,U6,12,OUT11*%
%TO.N,Net-(D15-K)*%
X150462500Y-42900000D03*
%TO.P,U6,13,OUT12*%
%TO.N,Net-(D16-K)*%
X150462500Y-42500000D03*
D30*
%TO.P,U6,14,OUT13*%
%TO.N,Net-(D17-K)*%
X149800000Y-41937500D03*
%TO.P,U6,15,OUT14*%
%TO.N,Net-(D18-K)*%
X149400000Y-41937500D03*
%TO.P,U6,16,OUT15*%
%TO.N,Net-(D19-K)*%
X149000000Y-41937500D03*
%TO.P,U6,17,OUT16*%
%TO.N,Net-(D20-K)*%
X148600000Y-41937500D03*
%TO.P,U6,18,OUT17*%
%TO.N,Net-(D21-K)*%
X148200000Y-41937500D03*
%TO.P,U6,19,OUT18*%
%TO.N,Net-(D22-K)*%
X147800000Y-41937500D03*
%TO.P,U6,20,OUT19*%
%TO.N,Net-(D23-K)*%
X147400000Y-41937500D03*
%TO.P,U6,21,OUT20*%
%TO.N,Net-(D24-K)*%
X147000000Y-41937500D03*
%TO.P,U6,22,OUT21*%
%TO.N,Net-(D25-K)*%
X146600000Y-41937500D03*
%TO.P,U6,23,OUT22*%
%TO.N,Net-(D26-K)*%
X146200000Y-41937500D03*
D29*
%TO.P,U6,24,OUT23*%
%TO.N,Net-(D27-K)*%
X145537500Y-42500000D03*
%TO.P,U6,25,OUT24*%
%TO.N,Net-(D28-K)*%
X145537500Y-42900000D03*
%TO.P,U6,26,OUT25*%
%TO.N,Net-(D29-K)*%
X145537500Y-43300000D03*
%TO.P,U6,27,OUT26*%
%TO.N,Net-(D30-K)*%
X145537500Y-43700000D03*
%TO.P,U6,28,OUT27*%
%TO.N,Net-(D31-K)*%
X145537500Y-44100000D03*
%TO.P,U6,29,OUT28*%
%TO.N,Net-(D32-K)*%
X145537500Y-44500000D03*
%TO.P,U6,30,OUT29*%
%TO.N,Net-(D33-K)*%
X145537500Y-44900000D03*
%TO.P,U6,31,OUT30*%
%TO.N,Net-(D34-K)*%
X145537500Y-45300000D03*
%TO.P,U6,32,OUT31*%
%TO.N,Net-(D35-K)*%
X145537500Y-45700000D03*
%TO.P,U6,33,OUT32*%
%TO.N,unconnected-(U6-OUT32-Pad33)*%
X145537500Y-46100000D03*
%TO.P,U6,34,OUT33*%
%TO.N,unconnected-(U6-OUT33-Pad34)*%
X145537500Y-46500000D03*
%TO.P,U6,35,OUT34*%
%TO.N,unconnected-(U6-OUT34-Pad35)*%
X145537500Y-46900000D03*
%TO.P,U6,36,OUT35*%
%TO.N,unconnected-(U6-OUT35-Pad36)*%
X145537500Y-47300000D03*
D30*
%TO.P,U6,37,GND*%
%TO.N,GND*%
X146200000Y-47862500D03*
%TO.P,U6,38,ADDR0*%
%TO.N,Net-(U6-ADDR0)*%
X146600000Y-47862500D03*
%TO.P,U6,39,ADDR1*%
%TO.N,Net-(U6-ADDR1)*%
X147000000Y-47862500D03*
%TO.P,U6,40,VCC*%
%TO.N,+3.3V*%
X147400000Y-47862500D03*
%TO.P,U6,41,SDA*%
%TO.N,I2C1_SDA*%
X147800000Y-47862500D03*
%TO.P,U6,42,SCL*%
%TO.N,I2C1_SCL*%
X148200000Y-47862500D03*
%TO.P,U6,43,EN*%
%TO.N,Net-(U6-EN)*%
X148600000Y-47862500D03*
%TO.P,U6,44,IREF*%
%TO.N,unconnected-(U6-IREF-Pad44)*%
X149000000Y-47862500D03*
%TO.P,U6,45,VCAP*%
%TO.N,unconnected-(U6-VCAP-Pad45)*%
X149400000Y-47862500D03*
%TO.P,U6,46,GND*%
%TO.N,GND*%
X149800000Y-47862500D03*
D31*
%TO.P,U6,47,GND*%
X148000000Y-44900000D03*
%TD*%
D32*
%TO.P,U5,1,RO*%
%TO.N,USART3_RX*%
X179829173Y-123692996D03*
%TO.P,U5,2,~{RE}*%
%TO.N,USART3_DE*%
X179829173Y-124962996D03*
%TO.P,U5,3,DE*%
X179829173Y-126232996D03*
%TO.P,U5,4,DI*%
%TO.N,USART3_TX*%
X179829173Y-127502996D03*
%TO.P,U5,5,GND*%
%TO.N,GND*%
X184779173Y-127502996D03*
%TO.P,U5,6,A*%
%TO.N,Net-(U5-A)*%
X184779173Y-126232996D03*
%TO.P,U5,7,B*%
%TO.N,Net-(U5-B)*%
X184779173Y-124962996D03*
%TO.P,U5,8,VCC*%
%TO.N,+3.3V*%
X184779173Y-123692996D03*
%TD*%
D33*
%TO.P,U4,1,RT*%
%TO.N,Net-(U4-RT)*%
X85560000Y-43387500D03*
%TO.P,U4,2,EN*%
%TO.N,24V_RP*%
X85560000Y-43887500D03*
%TO.P,U4,3,VIN*%
X85560000Y-44387500D03*
%TO.P,U4,4,GND*%
%TO.N,GND*%
X85560000Y-44887500D03*
%TO.P,U4,5,SW*%
%TO.N,Net-(U4-SW)*%
X87040000Y-44887500D03*
%TO.P,U4,6,BST*%
%TO.N,Net-(U4-BST)*%
X87040000Y-44387500D03*
%TO.P,U4,7,SS*%
%TO.N,Net-(U4-SS)*%
X87040000Y-43887500D03*
%TO.P,U4,8,FB*%
%TO.N,Net-(U4-FB)*%
X87040000Y-43387500D03*
%TD*%
D34*
%TO.P,U3,1,INH*%
%TO.N,+3V3*%
X154100000Y-58600000D03*
%TO.P,U3,2,GND*%
%TO.N,GND*%
X152250000Y-58600000D03*
%TO.P,U3,3,CLK*%
%TO.N,Net-(U2-XTAL1{slash}CLKIN)*%
X152250000Y-60050000D03*
%TO.P,U3,4,VCC*%
%TO.N,+3V3*%
X154100000Y-60050000D03*
%TD*%
D35*
%TO.P,U2,1,VDD2A*%
%TO.N,Net-(T1-CT_1)*%
X153500000Y-62500000D03*
%TO.P,U2,2,LED2/~{INTSEL}*%
%TO.N,Net-(D1-A)*%
X153000000Y-62500000D03*
%TO.P,U2,3,LED1/REGOFF*%
%TO.N,Net-(D2-A)*%
X152500000Y-62500000D03*
%TO.P,U2,4,XTAL2*%
%TO.N,unconnected-(U2-XTAL2-Pad4)*%
X152000000Y-62500000D03*
%TO.P,U2,5,XTAL1/CLKIN*%
%TO.N,Net-(U2-XTAL1{slash}CLKIN)*%
X151500000Y-62500000D03*
%TO.P,U2,6,VDDCR*%
%TO.N,Net-(U2-VDDCR)*%
X151000000Y-62500000D03*
D36*
%TO.P,U2,7,RXD1/MODE1*%
%TO.N,Net-(U2-RXD1{slash}MODE1)*%
X150262500Y-63237500D03*
%TO.P,U2,8,RXD0/MODE0*%
%TO.N,Net-(U2-RXD0{slash}MODE0)*%
X150262500Y-63737500D03*
%TO.P,U2,9,VDDIO*%
%TO.N,+3V3*%
X150262500Y-64237500D03*
%TO.P,U2,10,RXER/PHYAD0*%
%TO.N,Net-(U2-RXER{slash}PHYAD0)*%
X150262500Y-64737500D03*
%TO.P,U2,11,CRS_DV/MODE2*%
%TO.N,Net-(U2-CRS_DV{slash}MODE2)*%
X150262500Y-65237500D03*
%TO.P,U2,12,MDIO*%
%TO.N,ETH_MDIO*%
X150262500Y-65737500D03*
D35*
%TO.P,U2,13,MDC*%
%TO.N,ETH_MDC*%
X151000000Y-66475000D03*
%TO.P,U2,14,~{INT}/REFCLKO*%
%TO.N,Net-(U2-~{INT}{slash}REFCLKO)*%
X151500000Y-66475000D03*
%TO.P,U2,15,~{RST}*%
%TO.N,NRST*%
X152000000Y-66475000D03*
%TO.P,U2,16,TXEN*%
%TO.N,ETH_TXEN*%
X152500000Y-66475000D03*
%TO.P,U2,17,TXD0*%
%TO.N,ETH_TXD0*%
X153000000Y-66475000D03*
%TO.P,U2,18,TXD1*%
%TO.N,ETH_TXD1*%
X153500000Y-66475000D03*
D36*
%TO.P,U2,19,VDD1A*%
%TO.N,Net-(T1-CT_1)*%
X154237500Y-65737500D03*
%TO.P,U2,20,TXN*%
%TO.N,/Ethernet/TD-*%
X154237500Y-65237500D03*
%TO.P,U2,21,TXP*%
%TO.N,/Ethernet/TD+*%
X154237500Y-64737500D03*
%TO.P,U2,22,RXN*%
%TO.N,/Ethernet/RD-*%
X154237500Y-64237500D03*
%TO.P,U2,23,RXP*%
%TO.N,/Ethernet/RD+*%
X154237500Y-63737500D03*
%TO.P,U2,24,RBIAS*%
%TO.N,Net-(U2-RBIAS)*%
X154237500Y-63237500D03*
D37*
%TO.P,U2,25,VSS*%
%TO.N,GND*%
X152250000Y-64487500D03*
%TD*%
D38*
%TO.P,U1,1,PE2*%
%TO.N,SCK_LCD*%
X61737500Y-80650000D03*
%TO.P,U1,2,PE3*%
%TO.N,A0_LCD*%
X61737500Y-81150000D03*
%TO.P,U1,3,PE4*%
%TO.N,CS_LCD*%
X61737500Y-81650000D03*
%TO.P,U1,4,PE5*%
%TO.N,unconnected-(U1-PE5-Pad4)*%
X61737500Y-82150000D03*
%TO.P,U1,5,PE6*%
%TO.N,SDA_LCD*%
X61737500Y-82650000D03*
%TO.P,U1,6,VBAT*%
%TO.N,+3V3*%
X61737500Y-83150000D03*
%TO.P,U1,7,PC13*%
%TO.N,unconnected-(U1-PC13-Pad7)*%
X61737500Y-83650000D03*
%TO.P,U1,8,PC14*%
%TO.N,unconnected-(U1-PC14-Pad8)*%
X61737500Y-84150000D03*
%TO.P,U1,9,PC15*%
%TO.N,unconnected-(U1-PC15-Pad9)*%
X61737500Y-84650000D03*
%TO.P,U1,10,PF0*%
%TO.N,PF0*%
X61737500Y-85150000D03*
%TO.P,U1,11,PF1*%
%TO.N,PF1*%
X61737500Y-85650000D03*
%TO.P,U1,12,PF2*%
%TO.N,PF2*%
X61737500Y-86150000D03*
%TO.P,U1,13,PF3*%
%TO.N,PF3*%
X61737500Y-86650000D03*
%TO.P,U1,14,PF4*%
%TO.N,PF4*%
X61737500Y-87150000D03*
%TO.P,U1,15,PF5*%
%TO.N,PF5*%
X61737500Y-87650000D03*
%TO.P,U1,16,VSS*%
%TO.N,GND*%
X61737500Y-88150000D03*
%TO.P,U1,17,VDD*%
%TO.N,+3V3*%
X61737500Y-88650000D03*
%TO.P,U1,18,PF6*%
%TO.N,PF6*%
X61737500Y-89150000D03*
%TO.P,U1,19,PF7*%
%TO.N,PF7*%
X61737500Y-89650000D03*
%TO.P,U1,20,PF8*%
%TO.N,PF8*%
X61737500Y-90150000D03*
%TO.P,U1,21,PF9*%
%TO.N,PF9*%
X61737500Y-90650000D03*
%TO.P,U1,22,PF10*%
%TO.N,PF10*%
X61737500Y-91150000D03*
%TO.P,U1,23,PH0*%
%TO.N,HSE*%
X61737500Y-91650000D03*
%TO.P,U1,24,PH1*%
%TO.N,unconnected-(U1-PH1-Pad24)*%
X61737500Y-92150000D03*
%TO.P,U1,25,NRST*%
%TO.N,NRST*%
X61737500Y-92650000D03*
%TO.P,U1,26,PC0*%
%TO.N,unconnected-(U1-PC0-Pad26)*%
X61737500Y-93150000D03*
%TO.P,U1,27,PC1*%
%TO.N,ETH_MDC*%
X61737500Y-93650000D03*
%TO.P,U1,28,PC2*%
%TO.N,unconnected-(U1-PC2-Pad28)*%
X61737500Y-94150000D03*
%TO.P,U1,29,PC3*%
%TO.N,unconnected-(U1-PC3-Pad29)*%
X61737500Y-94650000D03*
%TO.P,U1,30,VDD*%
%TO.N,+3V3*%
X61737500Y-95150000D03*
%TO.P,U1,31,VSSA*%
%TO.N,GND*%
X61737500Y-95650000D03*
%TO.P,U1,32,VREF+*%
%TO.N,+3.3VA*%
X61737500Y-96150000D03*
%TO.P,U1,33,VDDA*%
X61737500Y-96650000D03*
%TO.P,U1,34,PA0*%
%TO.N,unconnected-(U1-PA0-Pad34)*%
X61737500Y-97150000D03*
%TO.P,U1,35,PA1*%
%TO.N,ETH_REF_CLK*%
X61737500Y-97650000D03*
%TO.P,U1,36,PA2*%
%TO.N,ETH_MDIO*%
X61737500Y-98150000D03*
D39*
%TO.P,U1,37,PA3*%
%TO.N,unconnected-(U1-PA3-Pad37)*%
X63650000Y-100062500D03*
%TO.P,U1,38,VSS*%
%TO.N,GND*%
X64150000Y-100062500D03*
%TO.P,U1,39,VDD*%
%TO.N,+3V3*%
X64650000Y-100062500D03*
%TO.P,U1,40,PA4*%
%TO.N,unconnected-(U1-PA4-Pad40)*%
X65150000Y-100062500D03*
%TO.P,U1,41,PA5*%
%TO.N,unconnected-(U1-PA5-Pad41)*%
X65650000Y-100062500D03*
%TO.P,U1,42,PA6*%
%TO.N,unconnected-(U1-PA6-Pad42)*%
X66150000Y-100062500D03*
%TO.P,U1,43,PA7*%
%TO.N,ETH_CRS_DV*%
X66650000Y-100062500D03*
%TO.P,U1,44,PC4*%
%TO.N,ETH_RXD0*%
X67150000Y-100062500D03*
%TO.P,U1,45,PC5*%
%TO.N,ETH_RXD1*%
X67650000Y-100062500D03*
%TO.P,U1,46,PB0*%
%TO.N,unconnected-(U1-PB0-Pad46)*%
X68150000Y-100062500D03*
%TO.P,U1,47,PB1*%
%TO.N,unconnected-(U1-PB1-Pad47)*%
X68650000Y-100062500D03*
%TO.P,U1,48,PB2*%
%TO.N,unconnected-(U1-PB2-Pad48)*%
X69150000Y-100062500D03*
%TO.P,U1,49,PF11*%
%TO.N,PF11*%
X69650000Y-100062500D03*
%TO.P,U1,50,PF12*%
%TO.N,PF12*%
X70150000Y-100062500D03*
%TO.P,U1,51,VSS*%
%TO.N,GND*%
X70650000Y-100062500D03*
%TO.P,U1,52,VDD*%
%TO.N,+3V3*%
X71150000Y-100062500D03*
%TO.P,U1,53,PF13*%
%TO.N,PF13*%
X71650000Y-100062500D03*
%TO.P,U1,54,PF14*%
%TO.N,PF14*%
X72150000Y-100062500D03*
%TO.P,U1,55,PF15*%
%TO.N,PF15*%
X72650000Y-100062500D03*
%TO.P,U1,56,PG0*%
%TO.N,PG0*%
X73150000Y-100062500D03*
%TO.P,U1,57,PG1*%
%TO.N,PG1*%
X73650000Y-100062500D03*
%TO.P,U1,58,PE7*%
%TO.N,unconnected-(U1-PE7-Pad58)*%
X74150000Y-100062500D03*
%TO.P,U1,59,PE8*%
%TO.N,unconnected-(U1-PE8-Pad59)*%
X74650000Y-100062500D03*
%TO.P,U1,60,PE9*%
%TO.N,unconnected-(U1-PE9-Pad60)*%
X75150000Y-100062500D03*
%TO.P,U1,61,VSS*%
%TO.N,GND*%
X75650000Y-100062500D03*
%TO.P,U1,62,VDD*%
%TO.N,+3V3*%
X76150000Y-100062500D03*
%TO.P,U1,63,PE10*%
%TO.N,unconnected-(U1-PE10-Pad63)*%
X76650000Y-100062500D03*
%TO.P,U1,64,PE11*%
%TO.N,unconnected-(U1-PE11-Pad64)*%
X77150000Y-100062500D03*
%TO.P,U1,65,PE12*%
%TO.N,unconnected-(U1-PE12-Pad65)*%
X77650000Y-100062500D03*
%TO.P,U1,66,PE13*%
%TO.N,unconnected-(U1-PE13-Pad66)*%
X78150000Y-100062500D03*
%TO.P,U1,67,PE14*%
%TO.N,unconnected-(U1-PE14-Pad67)*%
X78650000Y-100062500D03*
%TO.P,U1,68,PE15*%
%TO.N,unconnected-(U1-PE15-Pad68)*%
X79150000Y-100062500D03*
%TO.P,U1,69,PB10*%
%TO.N,unconnected-(U1-PB10-Pad69)*%
X79650000Y-100062500D03*
%TO.P,U1,70,PB11*%
%TO.N,ETH_TX_EN*%
X80150000Y-100062500D03*
%TO.P,U1,71,VCAP_1*%
%TO.N,Net-(U1-VCAP_1)*%
X80650000Y-100062500D03*
%TO.P,U1,72,VDD*%
%TO.N,+3V3*%
X81150000Y-100062500D03*
D38*
%TO.P,U1,73,PB12*%
%TO.N,ETH_TXD0*%
X83062500Y-98150000D03*
%TO.P,U1,74,PB13*%
%TO.N,ETH_TXD1*%
X83062500Y-97650000D03*
%TO.P,U1,75,PB14*%
%TO.N,USART3_DE*%
X83062500Y-97150000D03*
%TO.P,U1,76,PB15*%
%TO.N,unconnected-(U1-PB15-Pad76)*%
X83062500Y-96650000D03*
%TO.P,U1,77,PD8*%
%TO.N,PD8*%
X83062500Y-96150000D03*
%TO.P,U1,78,PD9*%
%TO.N,PD9*%
X83062500Y-95650000D03*
%TO.P,U1,79,PD10*%
%TO.N,PD10*%
X83062500Y-95150000D03*
%TO.P,U1,80,PD11*%
%TO.N,PD11*%
X83062500Y-94650000D03*
%TO.P,U1,81,PD12*%
%TO.N,PD12*%
X83062500Y-94150000D03*
%TO.P,U1,82,PD13*%
%TO.N,PD13*%
X83062500Y-93650000D03*
%TO.P,U1,83,VSS*%
%TO.N,GND*%
X83062500Y-93150000D03*
%TO.P,U1,84,VDD*%
%TO.N,+3V3*%
X83062500Y-92650000D03*
%TO.P,U1,85,PD14*%
%TO.N,PD14*%
X83062500Y-92150000D03*
%TO.P,U1,86,PD15*%
%TO.N,PD15*%
X83062500Y-91650000D03*
%TO.P,U1,87,PG2*%
%TO.N,PG2*%
X83062500Y-91150000D03*
%TO.P,U1,88,PG3*%
%TO.N,PG3*%
X83062500Y-90650000D03*
%TO.P,U1,89,PG4*%
%TO.N,PG4*%
X83062500Y-90150000D03*
%TO.P,U1,90,PG5*%
%TO.N,PG5*%
X83062500Y-89650000D03*
%TO.P,U1,91,PG6*%
%TO.N,PG6*%
X83062500Y-89150000D03*
%TO.P,U1,92,PG7*%
%TO.N,PG7*%
X83062500Y-88650000D03*
%TO.P,U1,93,PG8*%
%TO.N,PG8*%
X83062500Y-88150000D03*
%TO.P,U1,94,VSS*%
%TO.N,GND*%
X83062500Y-87650000D03*
%TO.P,U1,95,VDDUSB*%
%TO.N,+3V3*%
X83062500Y-87150000D03*
%TO.P,U1,96,PC6*%
%TO.N,USART6_TX*%
X83062500Y-86650000D03*
%TO.P,U1,97,PC7*%
%TO.N,USART6_RX*%
X83062500Y-86150000D03*
%TO.P,U1,98,PC8*%
%TO.N,unconnected-(U1-PC8-Pad98)*%
X83062500Y-85650000D03*
%TO.P,U1,99,PC9*%
%TO.N,unconnected-(U1-PC9-Pad99)*%
X83062500Y-85150000D03*
%TO.P,U1,100,PA8*%
%TO.N,unconnected-(U1-PA8-Pad100)*%
X83062500Y-84650000D03*
%TO.P,U1,101,PA9*%
%TO.N,USB_VBUS*%
X83062500Y-84150000D03*
%TO.P,U1,102,PA10*%
%TO.N,USB_ID*%
X83062500Y-83650000D03*
%TO.P,U1,103,PA11*%
%TO.N,USB_DM*%
X83062500Y-83150000D03*
%TO.P,U1,104,PA12*%
%TO.N,USB_DP*%
X83062500Y-82650000D03*
%TO.P,U1,105,PA13*%
%TO.N,SWDIO*%
X83062500Y-82150000D03*
%TO.P,U1,106,VCAP_2*%
%TO.N,Net-(U1-VCAP_2)*%
X83062500Y-81650000D03*
%TO.P,U1,107,VSS*%
%TO.N,GND*%
X83062500Y-81150000D03*
%TO.P,U1,108,VDD*%
%TO.N,+3V3*%
X83062500Y-80650000D03*
D39*
%TO.P,U1,109,PA14*%
%TO.N,SWCLK*%
X81150000Y-78737500D03*
%TO.P,U1,110,PA15*%
%TO.N,JTDI*%
X80650000Y-78737500D03*
%TO.P,U1,111,PC10*%
%TO.N,USART3_TX*%
X80150000Y-78737500D03*
%TO.P,U1,112,PC11*%
%TO.N,USART3_RX*%
X79650000Y-78737500D03*
%TO.P,U1,113,PC12*%
%TO.N,unconnected-(U1-PC12-Pad113)*%
X79150000Y-78737500D03*
%TO.P,U1,114,PD0*%
%TO.N,PD0*%
X78650000Y-78737500D03*
%TO.P,U1,115,PD1*%
%TO.N,PD1*%
X78150000Y-78737500D03*
%TO.P,U1,116,PD2*%
%TO.N,PD2*%
X77650000Y-78737500D03*
%TO.P,U1,117,PD3*%
%TO.N,PD3*%
X77150000Y-78737500D03*
%TO.P,U1,118,PD4*%
%TO.N,PD4*%
X76650000Y-78737500D03*
%TO.P,U1,119,PD5*%
%TO.N,PD5*%
X76150000Y-78737500D03*
%TO.P,U1,120,VSS*%
%TO.N,GND*%
X75650000Y-78737500D03*
%TO.P,U1,121,VDDSDMMC*%
%TO.N,+3V3*%
X75150000Y-78737500D03*
%TO.P,U1,122,PD6*%
%TO.N,PD6*%
X74650000Y-78737500D03*
%TO.P,U1,123,PD7*%
%TO.N,PD7*%
X74150000Y-78737500D03*
%TO.P,U1,124,PG9*%
%TO.N,PG9*%
X73650000Y-78737500D03*
%TO.P,U1,125,PG10*%
%TO.N,PG10*%
X73150000Y-78737500D03*
%TO.P,U1,126,PG11*%
%TO.N,PG11*%
X72650000Y-78737500D03*
%TO.P,U1,127,PG12*%
%TO.N,PG12*%
X72150000Y-78737500D03*
%TO.P,U1,128,PG13*%
%TO.N,PG13*%
X71650000Y-78737500D03*
%TO.P,U1,129,PG14*%
%TO.N,PG14*%
X71150000Y-78737500D03*
%TO.P,U1,130,VSS*%
%TO.N,GND*%
X70650000Y-78737500D03*
%TO.P,U1,131,VDD*%
%TO.N,+3V3*%
X70150000Y-78737500D03*
%TO.P,U1,132,PG15*%
%TO.N,PG15*%
X69650000Y-78737500D03*
%TO.P,U1,133,PB3*%
%TO.N,JTDO_SWO*%
X69150000Y-78737500D03*
%TO.P,U1,134,PB4*%
%TO.N,JTRST*%
X68650000Y-78737500D03*
%TO.P,U1,135,PB5*%
%TO.N,unconnected-(U1-PB5-Pad135)*%
X68150000Y-78737500D03*
%TO.P,U1,136,PB6*%
%TO.N,I2C1_SCL*%
X67650000Y-78737500D03*
%TO.P,U1,137,PB7*%
%TO.N,I2C1_SDA*%
X67150000Y-78737500D03*
%TO.P,U1,138,BOOT0*%
%TO.N,Net-(U1-BOOT0)*%
X66650000Y-78737500D03*
%TO.P,U1,139,PB8*%
%TO.N,UART5_RX*%
X66150000Y-78737500D03*
%TO.P,U1,140,PB9*%
%TO.N,UART5_TX*%
X65650000Y-78737500D03*
%TO.P,U1,141,PE0*%
%TO.N,unconnected-(U1-PE0-Pad141)*%
X65150000Y-78737500D03*
%TO.P,U1,142,PE1*%
%TO.N,RESET_LCD*%
X64650000Y-78737500D03*
%TO.P,U1,143,PDR_ON*%
%TO.N,+3V3*%
X64150000Y-78737500D03*
%TO.P,U1,144,VDD*%
X63650000Y-78737500D03*
%TD*%
D40*
%TO.P,R44,1*%
%TO.N,+3.3V*%
X136575000Y-60300000D03*
%TO.P,R44,2*%
%TO.N,I2C1_SDA*%
X138400000Y-60300000D03*
%TD*%
%TO.P,R43,1*%
%TO.N,+3.3V*%
X136575000Y-57790000D03*
%TO.P,R43,2*%
%TO.N,I2C1_SCL*%
X138400000Y-57790000D03*
%TD*%
D41*
%TO.P,R42,1*%
%TO.N,Net-(U6-EN)*%
X147450000Y-56800000D03*
%TO.P,R42,2*%
%TO.N,GND*%
X147450000Y-58625000D03*
%TD*%
D42*
%TO.P,R41,1*%
%TO.N,Net-(J2-Pin_1)*%
X194500000Y-120120000D03*
D43*
%TO.P,R41,2*%
%TO.N,Net-(J2-Pin_2)*%
X194500000Y-130280000D03*
%TD*%
D40*
%TO.P,R40,1*%
%TO.N,Net-(U5-A)*%
X188487500Y-126660000D03*
%TO.P,R40,2*%
%TO.N,Net-(J2-Pin_2)*%
X190312500Y-126660000D03*
%TD*%
%TO.P,R39,1*%
%TO.N,Net-(U5-B)*%
X188450000Y-124150000D03*
%TO.P,R39,2*%
%TO.N,Net-(J2-Pin_1)*%
X190275000Y-124150000D03*
%TD*%
%TO.P,R38,1*%
%TO.N,USART3_DE*%
X126687500Y-77190000D03*
%TO.P,R38,2*%
%TO.N,GND*%
X128512500Y-77190000D03*
%TD*%
%TO.P,R37,1*%
%TO.N,+3.3V*%
X126687500Y-74680000D03*
%TO.P,R37,2*%
%TO.N,USART3_TX*%
X128512500Y-74680000D03*
%TD*%
%TO.P,R36,1*%
%TO.N,+3.3V*%
X126687500Y-72170000D03*
%TO.P,R36,2*%
%TO.N,USART3_RX*%
X128512500Y-72170000D03*
%TD*%
D41*
%TO.P,R35,1*%
%TO.N,Net-(U6-ADDR1)*%
X145890000Y-56787500D03*
%TO.P,R35,2*%
%TO.N,GND*%
X145890000Y-58612500D03*
%TD*%
%TO.P,R34,1*%
%TO.N,Net-(U6-ADDR0)*%
X144350000Y-56787500D03*
%TO.P,R34,2*%
%TO.N,GND*%
X144350000Y-58612500D03*
%TD*%
D40*
%TO.P,R33,1*%
%TO.N,+3V3*%
X126687500Y-69660000D03*
%TO.P,R33,2*%
%TO.N,Net-(J8-Pad5)*%
X128512500Y-69660000D03*
%TD*%
D41*
%TO.P,R32,1*%
%TO.N,Net-(Q2-G)*%
X69500000Y-49925000D03*
%TO.P,R32,2*%
%TO.N,GND*%
X69500000Y-51750000D03*
%TD*%
%TO.P,R31,1*%
%TO.N,24V_RP*%
X69500000Y-46562500D03*
%TO.P,R31,2*%
%TO.N,Net-(Q2-G)*%
X69500000Y-48387500D03*
%TD*%
D44*
%TO.P,R30,1*%
%TO.N,Net-(Q1-G)*%
X50412500Y-37525000D03*
%TO.P,R30,2*%
%TO.N,GND*%
X48587500Y-37525000D03*
%TD*%
D40*
%TO.P,R29,1*%
%TO.N,Net-(J13-Pin_2)*%
X48587500Y-39075000D03*
%TO.P,R29,2*%
%TO.N,Net-(Q1-G)*%
X50412500Y-39075000D03*
%TD*%
%TO.P,R28,1*%
%TO.N,Net-(U4-FB)*%
X122337500Y-89740000D03*
%TO.P,R28,2*%
%TO.N,GND*%
X124162500Y-89740000D03*
%TD*%
%TO.P,R27,1*%
%TO.N,+3V3*%
X122337500Y-87230000D03*
%TO.P,R27,2*%
%TO.N,Net-(U4-FB)*%
X124162500Y-87230000D03*
%TD*%
D45*
%TO.P,R26,1*%
%TO.N,Net-(U4-RT)*%
X83800000Y-42612500D03*
%TO.P,R26,2*%
%TO.N,GND*%
X83800000Y-40787500D03*
%TD*%
D40*
%TO.P,R25,1*%
%TO.N,Net-(U2-CRS_DV{slash}MODE2)*%
X111050000Y-84360000D03*
%TO.P,R25,2*%
%TO.N,+3V3*%
X112875000Y-84360000D03*
%TD*%
%TO.P,R24,1*%
%TO.N,Net-(U2-RXD1{slash}MODE1)*%
X111050000Y-81850000D03*
%TO.P,R24,2*%
%TO.N,+3V3*%
X112875000Y-81850000D03*
%TD*%
%TO.P,R23,1*%
%TO.N,Net-(U2-RXD0{slash}MODE0)*%
X111050000Y-79340000D03*
%TO.P,R23,2*%
%TO.N,+3V3*%
X112875000Y-79340000D03*
%TD*%
%TO.P,R22,1*%
%TO.N,ETH_RXD0*%
X111050000Y-76830000D03*
%TO.P,R22,2*%
%TO.N,Net-(U2-RXD0{slash}MODE0)*%
X112875000Y-76830000D03*
%TD*%
%TO.P,R21,1*%
%TO.N,ETH_RXD1*%
X111050000Y-74320000D03*
%TO.P,R21,2*%
%TO.N,Net-(U2-RXD1{slash}MODE1)*%
X112875000Y-74320000D03*
%TD*%
%TO.P,R20,1*%
%TO.N,+3V3*%
X162400000Y-60500000D03*
%TO.P,R20,2*%
%TO.N,/Ethernet/TD+*%
X164225000Y-60500000D03*
%TD*%
%TO.P,R19,1*%
%TO.N,+3V3*%
X162400000Y-63050000D03*
%TO.P,R19,2*%
%TO.N,/Ethernet/TD-*%
X164225000Y-63050000D03*
%TD*%
%TO.P,R18,2*%
%TO.N,/Ethernet/RD+*%
X164200000Y-66850000D03*
%TO.P,R18,1*%
%TO.N,+3V3*%
X162375000Y-66850000D03*
%TD*%
%TO.P,R17,1*%
%TO.N,+3V3*%
X162425000Y-69400000D03*
%TO.P,R17,2*%
%TO.N,/Ethernet/RD-*%
X164250000Y-69400000D03*
%TD*%
%TO.P,R16,1*%
%TO.N,GND*%
X106700000Y-81850000D03*
%TO.P,R16,2*%
%TO.N,Net-(U2-RXER{slash}PHYAD0)*%
X108525000Y-81850000D03*
%TD*%
%TO.P,R15,1*%
%TO.N,ETH_CRS_DV*%
X106700000Y-79340000D03*
%TO.P,R15,2*%
%TO.N,Net-(U2-CRS_DV{slash}MODE2)*%
X108525000Y-79340000D03*
%TD*%
%TO.P,R14,1*%
%TO.N,+3V3*%
X106700000Y-76830000D03*
%TO.P,R14,2*%
%TO.N,ETH_MDIO*%
X108525000Y-76830000D03*
%TD*%
%TO.P,R13,1*%
%TO.N,+3V3*%
X106700000Y-74320000D03*
%TO.P,R13,2*%
%TO.N,Net-(U2-~{INT}{slash}REFCLKO)*%
X108525000Y-74320000D03*
%TD*%
%TO.P,R12,1*%
%TO.N,ETH_REF_CLK*%
X106700000Y-71810000D03*
%TO.P,R12,2*%
%TO.N,Net-(U2-~{INT}{slash}REFCLKO)*%
X108525000Y-71810000D03*
%TD*%
%TO.P,R11,1*%
%TO.N,Net-(D2-K)*%
X106700000Y-69300000D03*
%TO.P,R11,2*%
%TO.N,GND*%
X108525000Y-69300000D03*
%TD*%
%TO.P,R10,1*%
%TO.N,Net-(D1-K)*%
X102350000Y-86870000D03*
%TO.P,R10,2*%
%TO.N,GND*%
X104175000Y-86870000D03*
%TD*%
D45*
%TO.P,R9,1*%
%TO.N,Net-(U2-RBIAS)*%
X158900000Y-62312500D03*
%TO.P,R9,2*%
%TO.N,GND*%
X158900000Y-60487500D03*
%TD*%
D44*
%TO.P,R8,1*%
%TO.N,Net-(J1-Pad7)*%
X187612500Y-70450000D03*
%TO.P,R8,2*%
%TO.N,Net-(C18-Pad1)*%
X185787500Y-70450000D03*
%TD*%
%TO.P,R7,1*%
%TO.N,Net-(J1-Pad4)*%
X187562500Y-64650000D03*
%TO.P,R7,2*%
%TO.N,Net-(C18-Pad1)*%
X185737500Y-64650000D03*
%TD*%
D40*
%TO.P,R6,1*%
%TO.N,Net-(T1-CT_4)*%
X179587500Y-61750000D03*
%TO.P,R6,2*%
%TO.N,Net-(C18-Pad1)*%
X181412500Y-61750000D03*
%TD*%
%TO.P,R5,1*%
%TO.N,Net-(T1-CT_3)*%
X179450000Y-68150000D03*
%TO.P,R5,2*%
%TO.N,Net-(C18-Pad1)*%
X181275000Y-68150000D03*
%TD*%
%TO.P,R4,1*%
%TO.N,GND*%
X64200000Y-71300000D03*
%TO.P,R4,2*%
%TO.N,Net-(U1-BOOT0)*%
X66025000Y-71300000D03*
%TD*%
%TO.P,R3,1*%
%TO.N,Net-(U1-BOOT0)*%
X67750000Y-71300000D03*
%TO.P,R3,2*%
%TO.N,+3V3*%
X69575000Y-71300000D03*
%TD*%
D44*
%TO.P,R2,1*%
%TO.N,Net-(S1-COM_2)*%
X46362500Y-90900000D03*
%TO.P,R2,2*%
%TO.N,+3V3*%
X44537500Y-90900000D03*
%TD*%
D40*
%TO.P,R1,1*%
%TO.N,Net-(S1-COM_2)*%
X48337500Y-90900000D03*
%TO.P,R1,2*%
%TO.N,NRST*%
X50162500Y-90900000D03*
%TD*%
D46*
%TO.P,J13,*%
%TO.N,*%
X29975000Y-45650000D03*
X29975000Y-34650000D03*
D47*
%TO.P,J13,1,Pin_1*%
%TO.N,GND*%
X39975000Y-37650000D03*
D48*
%TO.P,J13,2,Pin_2*%
%TO.N,Net-(J13-Pin_2)*%
X39975000Y-42650000D03*
%TD*%
D49*
%TO.P,J9,1,VBUS*%
%TO.N,unconnected-(J9-VBUS-Pad1)*%
X196875000Y-89100000D03*
%TO.P,J9,2,D-*%
%TO.N,Net-(J9-D-)*%
X196875000Y-88300000D03*
%TO.P,J9,3,D+*%
%TO.N,Net-(J9-D+)*%
X196875000Y-87500000D03*
%TO.P,J9,4,ID*%
%TO.N,unconnected-(J9-ID-Pad4)*%
X196875000Y-86700000D03*
%TO.P,J9,5,GND*%
%TO.N,GND*%
X196875000Y-85900000D03*
D50*
%TO.P,J9,6,Shield*%
X196875000Y-91900000D03*
X202375000Y-91900000D03*
X196875000Y-83100000D03*
X202375000Y-83100000D03*
%TD*%
D49*
%TO.P,J7,1,VBUS*%
%TO.N,USB_VBUS*%
X197000000Y-109000000D03*
%TO.P,J7,2,D-*%
%TO.N,USB_DM*%
X197000000Y-108200000D03*
%TO.P,J7,3,D+*%
%TO.N,USB_DP*%
X197000000Y-107400000D03*
%TO.P,J7,4,ID*%
%TO.N,USB_ID*%
X197000000Y-106600000D03*
%TO.P,J7,5,GND*%
%TO.N,GND*%
X197000000Y-105800000D03*
D50*
%TO.P,J7,6,Shield*%
X197000000Y-111800000D03*
X202500000Y-111800000D03*
X197000000Y-103000000D03*
X202500000Y-103000000D03*
%TD*%
D17*
%TO.P,J5,1,Pin_1*%
%TO.N,24V_RP*%
X65900000Y-40559432D03*
%TD*%
%TO.P,J4,1,Pin_1*%
%TO.N,GND*%
X93596418Y-38917639D03*
%TD*%
%TO.P,J3,1,Pin_1*%
%TO.N,+3V3*%
X98064321Y-54275169D03*
%TD*%
D51*
%TO.P,J2,1,Pin_1*%
%TO.N,Net-(J2-Pin_1)*%
X203200000Y-123700000D03*
D52*
%TO.P,J2,2,Pin_2*%
%TO.N,Net-(J2-Pin_2)*%
X203200000Y-126200000D03*
%TD*%
D53*
%TO.P,FB2,1*%
%TO.N,Net-(T1-CT_1)*%
X102387500Y-71810000D03*
%TO.P,FB2,2*%
%TO.N,+3V3*%
X104137500Y-71810000D03*
%TD*%
D26*
%TO.P,FB1,1*%
%TO.N,+3V3*%
X58950000Y-96750000D03*
%TO.P,FB1,2*%
%TO.N,+3.3VA*%
X57200000Y-96750000D03*
%TD*%
D54*
%TO.P,C50,1*%
%TO.N,+3V3*%
X55450000Y-89887500D03*
%TO.P,C50,2*%
%TO.N,GND*%
X55450000Y-91612500D03*
%TD*%
%TO.P,C49,1*%
%TO.N,+3V3*%
X53800000Y-89887500D03*
%TO.P,C49,2*%
%TO.N,GND*%
X53800000Y-91612500D03*
%TD*%
D55*
%TO.P,C48,1*%
%TO.N,+3V3*%
X72500000Y-122725000D03*
%TO.P,C48,2*%
%TO.N,GND*%
X72500000Y-121000000D03*
%TD*%
%TO.P,C47,1*%
%TO.N,+3V3*%
X71000000Y-122725000D03*
%TO.P,C47,2*%
%TO.N,GND*%
X71000000Y-121000000D03*
%TD*%
%TO.P,C46,1*%
%TO.N,+3V3*%
X69500000Y-122725000D03*
%TO.P,C46,2*%
%TO.N,GND*%
X69500000Y-121000000D03*
%TD*%
D56*
%TO.P,C45,1*%
%TO.N,+3.3V*%
X184762500Y-122150000D03*
%TO.P,C45,2*%
%TO.N,GND*%
X183037500Y-122150000D03*
%TD*%
D55*
%TO.P,C44,1*%
%TO.N,+3V3*%
X74000000Y-122725000D03*
%TO.P,C44,2*%
%TO.N,GND*%
X74000000Y-121000000D03*
%TD*%
%TO.P,C42,2*%
%TO.N,GND*%
X124400000Y-121400000D03*
%TO.P,C42,1*%
%TO.N,+3V3*%
X124400000Y-123125000D03*
%TD*%
%TO.P,C41,2*%
%TO.N,GND*%
X121380000Y-121405000D03*
%TO.P,C41,1*%
%TO.N,+3V3*%
X121380000Y-123130000D03*
%TD*%
D56*
%TO.P,C39,1*%
%TO.N,+3V3*%
X186762500Y-82000000D03*
%TO.P,C39,2*%
%TO.N,GND*%
X185037500Y-82000000D03*
%TD*%
D57*
%TO.P,C38,1*%
%TO.N,+3V3*%
X183951151Y-94517380D03*
%TO.P,C38,2*%
%TO.N,GND*%
X185676151Y-94517380D03*
%TD*%
D58*
%TO.P,C37,1*%
%TO.N,24V_RP*%
X75150000Y-41150000D03*
%TO.P,C37,2*%
%TO.N,GND*%
X75150000Y-48350000D03*
%TD*%
D57*
%TO.P,C36,1*%
%TO.N,Net-(U1-VCAP_2)*%
X86205722Y-81887888D03*
%TO.P,C36,2*%
%TO.N,GND*%
X87930722Y-81887888D03*
%TD*%
D54*
%TO.P,C35,1*%
%TO.N,Net-(U1-VCAP_1)*%
X80650000Y-102900000D03*
%TO.P,C35,2*%
%TO.N,GND*%
X80650000Y-104625000D03*
%TD*%
D59*
%TO.P,C34,1*%
%TO.N,+3V3*%
X98550000Y-49000000D03*
%TO.P,C34,2*%
%TO.N,GND*%
X98550000Y-41800000D03*
%TD*%
D55*
%TO.P,C33,1*%
%TO.N,+3V3*%
X104600000Y-46362500D03*
%TO.P,C33,2*%
%TO.N,GND*%
X104600000Y-44637500D03*
%TD*%
D56*
%TO.P,C32,1*%
%TO.N,+3V3*%
X90512500Y-41800000D03*
%TO.P,C32,2*%
%TO.N,Net-(U4-FB)*%
X88787500Y-41800000D03*
%TD*%
%TO.P,C31,1*%
%TO.N,Net-(U4-BST)*%
X90525000Y-44900000D03*
%TO.P,C31,2*%
%TO.N,Net-(U4-SW)*%
X88800000Y-44900000D03*
%TD*%
D57*
%TO.P,C30,1*%
%TO.N,Net-(U4-SS)*%
X88787500Y-43350000D03*
%TO.P,C30,2*%
%TO.N,GND*%
X90512500Y-43350000D03*
%TD*%
D54*
%TO.P,C29,1*%
%TO.N,24V_RP*%
X83810000Y-45125000D03*
%TO.P,C29,2*%
%TO.N,GND*%
X83810000Y-46850000D03*
%TD*%
D57*
%TO.P,C28,1*%
%TO.N,+3V3*%
X102400000Y-69300000D03*
%TO.P,C28,2*%
%TO.N,GND*%
X104125000Y-69300000D03*
%TD*%
%TO.P,C27,1*%
%TO.N,Net-(U2-VDDCR)*%
X98050000Y-86870000D03*
%TO.P,C27,2*%
%TO.N,GND*%
X99775000Y-86870000D03*
%TD*%
%TO.P,C26,1*%
%TO.N,Net-(U2-VDDCR)*%
X98050000Y-84360000D03*
%TO.P,C26,2*%
%TO.N,GND*%
X99775000Y-84360000D03*
%TD*%
D60*
%TO.P,C25,1*%
%TO.N,Net-(T1-CT_1)*%
X154479608Y-70112027D03*
%TO.P,C25,2*%
%TO.N,GND*%
X157604608Y-70112027D03*
%TD*%
D57*
%TO.P,C24,1*%
%TO.N,Net-(T1-CT_1)*%
X154400000Y-68200000D03*
%TO.P,C24,2*%
%TO.N,GND*%
X156125000Y-68200000D03*
%TD*%
D55*
%TO.P,C23,1*%
%TO.N,Net-(T1-CT_1)*%
X157400000Y-62262500D03*
%TO.P,C23,2*%
%TO.N,GND*%
X157400000Y-60537500D03*
%TD*%
D56*
%TO.P,C22,1*%
%TO.N,+3V3*%
X154162500Y-55450000D03*
%TO.P,C22,2*%
%TO.N,GND*%
X152437500Y-55450000D03*
%TD*%
%TO.P,C21,1*%
%TO.N,+3V3*%
X154162500Y-56950000D03*
%TO.P,C21,2*%
%TO.N,GND*%
X152437500Y-56950000D03*
%TD*%
%TO.P,C20,1*%
%TO.N,Net-(T1-CT_1)*%
X169062500Y-57400000D03*
%TO.P,C20,2*%
%TO.N,GND*%
X167337500Y-57400000D03*
%TD*%
%TO.P,C19,1*%
%TO.N,Net-(T1-CT_1)*%
X169062500Y-72500000D03*
%TO.P,C19,2*%
%TO.N,GND*%
X167337500Y-72500000D03*
%TD*%
D60*
%TO.P,C18,1*%
%TO.N,Net-(C18-Pad1)*%
X185737500Y-55150000D03*
%TO.P,C18,2*%
%TO.N,Earth*%
X188862500Y-55150000D03*
%TD*%
D54*
%TO.P,C17,2*%
%TO.N,GND*%
X57350000Y-100225000D03*
%TO.P,C17,1*%
%TO.N,+3.3VA*%
X57350000Y-98500000D03*
%TD*%
%TO.P,C16,2*%
%TO.N,GND*%
X58900000Y-100225000D03*
%TO.P,C16,1*%
%TO.N,+3.3VA*%
X58900000Y-98500000D03*
%TD*%
D61*
%TO.P,C15,1*%
%TO.N,+3V3*%
X49317500Y-93750000D03*
%TO.P,C15,2*%
%TO.N,GND*%
X48182500Y-93750000D03*
%TD*%
D55*
%TO.P,C14,1*%
%TO.N,+3V3*%
X46500000Y-96962500D03*
%TO.P,C14,2*%
%TO.N,GND*%
X46500000Y-95237500D03*
%TD*%
D57*
%TO.P,C13,1*%
%TO.N,+3V3*%
X86150000Y-87150000D03*
%TO.P,C13,2*%
%TO.N,GND*%
X87875000Y-87150000D03*
%TD*%
D55*
%TO.P,C12,1*%
%TO.N,+3V3*%
X64150000Y-75750000D03*
%TO.P,C12,2*%
%TO.N,GND*%
X64150000Y-74025000D03*
%TD*%
%TO.P,C11,1*%
%TO.N,+3V3*%
X70150000Y-75700000D03*
%TO.P,C11,2*%
%TO.N,GND*%
X70150000Y-73975000D03*
%TD*%
%TO.P,C10,1*%
%TO.N,+3V3*%
X75150000Y-75675000D03*
%TO.P,C10,2*%
%TO.N,GND*%
X75150000Y-73950000D03*
%TD*%
D57*
%TO.P,C9,1*%
%TO.N,+3V3*%
X86200000Y-80400000D03*
%TO.P,C9,2*%
%TO.N,GND*%
X87925000Y-80400000D03*
%TD*%
%TO.P,C8,2*%
%TO.N,GND*%
X87625000Y-92650000D03*
%TO.P,C8,1*%
%TO.N,+3V3*%
X85900000Y-92650000D03*
%TD*%
D54*
%TO.P,C7,2*%
%TO.N,GND*%
X82150000Y-104625000D03*
%TO.P,C7,1*%
%TO.N,+3V3*%
X82150000Y-102900000D03*
%TD*%
%TO.P,C6,1*%
%TO.N,+3V3*%
X76150000Y-102700000D03*
%TO.P,C6,2*%
%TO.N,GND*%
X76150000Y-104425000D03*
%TD*%
%TO.P,C5,1*%
%TO.N,+3V3*%
X71150000Y-102487500D03*
%TO.P,C5,2*%
%TO.N,GND*%
X71150000Y-104212500D03*
%TD*%
%TO.P,C4,1*%
%TO.N,+3V3*%
X64650000Y-102487500D03*
%TO.P,C4,2*%
%TO.N,GND*%
X64650000Y-104212500D03*
%TD*%
D56*
%TO.P,C3,1*%
%TO.N,+3V3*%
X58912500Y-95150000D03*
%TO.P,C3,2*%
%TO.N,GND*%
X57187500Y-95150000D03*
%TD*%
%TO.P,C2,1*%
%TO.N,+3V3*%
X58612500Y-88050000D03*
%TO.P,C2,2*%
%TO.N,GND*%
X56887500Y-88050000D03*
%TD*%
%TO.P,C1,1*%
%TO.N,+3V3*%
X59062500Y-83150000D03*
%TO.P,C1,2*%
%TO.N,GND*%
X57337500Y-83150000D03*
%TD*%
D55*
%TO.P,C40,2*%
%TO.N,GND*%
X122890000Y-121400000D03*
%TO.P,C40,1*%
%TO.N,+3V3*%
X122890000Y-123125000D03*
%TD*%
%TO.P,C43,2*%
%TO.N,GND*%
X125900000Y-121400000D03*
%TO.P,C43,1*%
%TO.N,+3V3*%
X125900000Y-123125000D03*
%TD*%
D62*
%TO.N,/Ethernet/RD-*%
X165900000Y-69400000D03*
X160141885Y-64984396D03*
%TO.N,/Ethernet/RD+*%
X165900000Y-66900000D03*
X159144508Y-63580798D03*
%TO.N,Net-(D35-K)*%
X139938248Y-39549252D03*
X138820000Y-37237500D03*
%TO.N,Net-(D27-K)*%
X145700000Y-37887500D03*
X145000000Y-40737500D03*
%TO.N,Net-(D19-K)*%
X148750000Y-39637500D03*
X153300000Y-36937500D03*
%TO.N,Net-(D11-K)*%
X161715380Y-38772120D03*
X160309318Y-36887500D03*
%TO.N,Net-(C18-Pad1)*%
X183800000Y-55800000D03*
X183800000Y-68200000D03*
X183800000Y-64800000D03*
X183800000Y-61800000D03*
X183800000Y-70200000D03*
%TO.N,Net-(J1-Pad4)*%
X190900000Y-64600000D03*
%TD*%
D63*
%TO.N,/Ethernet/TD-*%
X157942000Y-65489500D02*
G75*
G02*
X158194000Y-65237500I252000J0D01*
G01*
X157060000Y-65237500D02*
G75*
G02*
X157312000Y-65489500I0J-252000D01*
G01*
X155800000Y-65237500D02*
G75*
G02*
X156052000Y-65489500I0J-252000D01*
G01*
X157312000Y-65685500D02*
G75*
G03*
X157564000Y-65937500I252000J0D01*
G01*
X156682000Y-65489500D02*
G75*
G02*
X156934000Y-65237500I252000J0D01*
G01*
X157690000Y-65937500D02*
G75*
G03*
X157942000Y-65685500I0J252000D01*
G01*
X156430000Y-65937500D02*
G75*
G03*
X156682000Y-65685500I0J252000D01*
G01*
X156052000Y-65685500D02*
G75*
G03*
X156304000Y-65937500I252000J0D01*
G01*
X158768644Y-65237500D02*
X159665540Y-66134396D01*
X158320000Y-65237500D02*
X158500000Y-65237500D01*
X158194000Y-65237500D02*
X158320000Y-65237500D01*
X158500000Y-65237500D02*
X158768644Y-65237500D01*
X157312000Y-65489500D02*
X157312000Y-65685500D01*
X157564000Y-65937500D02*
X157690000Y-65937500D01*
X156934000Y-65237500D02*
X157060000Y-65237500D01*
X154237500Y-65237500D02*
X155800000Y-65237500D01*
X156682000Y-65685500D02*
X156682000Y-65489500D01*
X162975000Y-64300000D02*
X164225000Y-63050000D01*
X161400000Y-65352627D02*
X161400000Y-64300000D01*
X157942000Y-65685500D02*
X157942000Y-65489500D01*
X156304000Y-65937500D02*
X156430000Y-65937500D01*
X156052000Y-65489500D02*
X156052000Y-65685500D01*
X159665540Y-66134396D02*
X160618231Y-66134396D01*
X160618231Y-66134396D02*
X161400000Y-65352627D01*
X161400000Y-64300000D02*
X162975000Y-64300000D01*
%TO.N,/Ethernet/RD-*%
X164250000Y-69400000D02*
X165900000Y-69400000D01*
%TO.N,/Ethernet/RD+*%
X165850000Y-66850000D02*
X165900000Y-66900000D01*
X164200000Y-66850000D02*
X165850000Y-66850000D01*
%TO.N,/Ethernet/TD-*%
X164230000Y-63045000D02*
X164225000Y-63050000D01*
X167650000Y-63045000D02*
X164230000Y-63045000D01*
D64*
%TO.N,/Ethernet/TD+*%
X164225000Y-60500000D02*
X167645000Y-60500000D01*
X167645000Y-60500000D02*
X167650000Y-60505000D01*
X162625000Y-62100000D02*
X164225000Y-60500000D01*
X161500000Y-62100000D02*
X162625000Y-62100000D01*
X160900000Y-62700000D02*
X161500000Y-62100000D01*
X160900000Y-65251586D02*
X160900000Y-62700000D01*
X160442190Y-65709396D02*
X160900000Y-65251586D01*
X159841580Y-65709396D02*
X160442190Y-65709396D01*
X159062500Y-64930316D02*
X159841580Y-65709396D01*
X159062500Y-64737500D02*
X159062500Y-64930316D01*
X154237500Y-64737500D02*
X159062500Y-64737500D01*
D63*
%TO.N,/Ethernet/RD-*%
X167645000Y-69400000D02*
X167650000Y-69395000D01*
X160084396Y-64984396D02*
X160141885Y-64984396D01*
X165900000Y-69400000D02*
X167645000Y-69400000D01*
X159400000Y-64300000D02*
X160084396Y-64984396D01*
X159380798Y-64280798D02*
X159400000Y-64300000D01*
X154280798Y-64280798D02*
X159380798Y-64280798D01*
X154237500Y-64237500D02*
X154280798Y-64280798D01*
%TO.N,/Ethernet/RD+*%
X167605000Y-66900000D02*
X167650000Y-66855000D01*
X165900000Y-66900000D02*
X167605000Y-66900000D01*
X158987806Y-63737500D02*
X159144508Y-63580798D01*
X154237500Y-63737500D02*
X158987806Y-63737500D01*
D64*
%TO.N,Net-(U2-RBIAS)*%
X158900000Y-62800000D02*
X158900000Y-62312500D01*
X158462500Y-63237500D02*
X158900000Y-62800000D01*
X154237500Y-63237500D02*
X158462500Y-63237500D01*
%TO.N,Net-(T1-CT_1)*%
X154962500Y-62262500D02*
X157400000Y-62262500D01*
X154700000Y-62000000D02*
X154962500Y-62262500D01*
X153686396Y-62000000D02*
X154700000Y-62000000D01*
X153500000Y-62186396D02*
X153686396Y-62000000D01*
X153500000Y-62500000D02*
X153500000Y-62186396D01*
%TO.N,Net-(D1-A)*%
X156100000Y-57400000D02*
X158925000Y-57400000D01*
X155550000Y-57950000D02*
X156100000Y-57400000D01*
X155550000Y-60886396D02*
X155550000Y-57950000D01*
X155086396Y-61350000D02*
X155550000Y-60886396D01*
X153650000Y-61350000D02*
X155086396Y-61350000D01*
X153200000Y-61800000D02*
X153650000Y-61350000D01*
X153200000Y-61850000D02*
X153200000Y-61800000D01*
X153000000Y-62050000D02*
X153200000Y-61850000D01*
X153000000Y-62500000D02*
X153000000Y-62050000D01*
%TO.N,Net-(D2-A)*%
X155100000Y-60700000D02*
X155100000Y-56300000D01*
X154900000Y-60900000D02*
X155100000Y-60700000D01*
X153300000Y-60900000D02*
X154900000Y-60900000D01*
X155600000Y-55800000D02*
X155100000Y-56300000D01*
X152500000Y-61700000D02*
X152500000Y-62500000D01*
X158925000Y-55800000D02*
X155600000Y-55800000D01*
X153300000Y-60900000D02*
X152500000Y-61700000D01*
%TO.N,Net-(U2-XTAL1{slash}CLKIN)*%
X151500000Y-61300000D02*
X152250000Y-60550000D01*
X151500000Y-62500000D02*
X151500000Y-61300000D01*
D65*
%TO.N,Net-(D22-K)*%
X148500000Y-37937500D02*
X148500000Y-35504556D01*
X148500000Y-35504556D02*
X147527944Y-34532500D01*
X147527944Y-34532500D02*
X146200000Y-34532500D01*
X147500000Y-38937500D02*
X148500000Y-37937500D01*
X147800000Y-40455267D02*
X147500000Y-40155267D01*
X147800000Y-41937500D02*
X147800000Y-40455267D01*
X147500000Y-40155267D02*
X147500000Y-38937500D01*
%TO.N,Net-(D21-K)*%
X148200000Y-40431003D02*
X148200000Y-41937500D01*
X147800000Y-40031003D02*
X148200000Y-40431003D01*
X147800000Y-39213236D02*
X147800000Y-40031003D01*
X148800000Y-38213236D02*
X147800000Y-39213236D01*
X148545316Y-34375608D02*
X148545316Y-35125608D01*
X148800000Y-35380292D02*
X148800000Y-38213236D01*
X148400000Y-34230292D02*
X148545316Y-34375608D01*
X147945000Y-30782500D02*
X148400000Y-31237500D01*
X148400000Y-31237500D02*
X148400000Y-34230292D01*
X148545316Y-35125608D02*
X148800000Y-35380292D01*
X146800000Y-30782500D02*
X147945000Y-30782500D01*
%TO.N,Net-(D20-K)*%
X144750000Y-27387500D02*
X144750000Y-28437500D01*
X145100000Y-27037500D02*
X144750000Y-27387500D01*
X148100000Y-27037500D02*
X145100000Y-27037500D01*
X148700000Y-34106028D02*
X148700000Y-27637500D01*
X148845316Y-35001344D02*
X148845316Y-34251344D01*
X149100000Y-35256028D02*
X148845316Y-35001344D01*
X148100000Y-39337500D02*
X149100000Y-38337500D01*
X148845316Y-34251344D02*
X148700000Y-34106028D01*
X148100000Y-39906739D02*
X148100000Y-39337500D01*
X148600000Y-41937500D02*
X148600000Y-40406739D01*
X148600000Y-40406739D02*
X148100000Y-39906739D01*
X149100000Y-38337500D02*
X149100000Y-35256028D01*
X148700000Y-27637500D02*
X148100000Y-27037500D01*
%TO.N,Net-(D18-K)*%
X149400000Y-35131764D02*
X149400000Y-41937500D01*
X149145316Y-34127080D02*
X149145316Y-34877080D01*
X149000000Y-33981764D02*
X149145316Y-34127080D01*
X149000000Y-29337500D02*
X149000000Y-33981764D01*
X149441281Y-28896219D02*
X149000000Y-29337500D01*
X151515316Y-29361957D02*
X151049578Y-28896219D01*
X149145316Y-34877080D02*
X149400000Y-35131764D01*
X151049578Y-28896219D02*
X149441281Y-28896219D01*
X151515316Y-31928719D02*
X151515316Y-29361957D01*
%TO.N,Net-(D17-K)*%
X149300000Y-32089035D02*
X150715316Y-30673719D01*
X149300000Y-33857500D02*
X149300000Y-32089035D01*
X149445316Y-34752816D02*
X149445316Y-34002816D01*
X149715316Y-35022816D02*
X149445316Y-34752816D01*
X149445316Y-34002816D02*
X149300000Y-33857500D01*
X149800000Y-36386028D02*
X149715316Y-36301344D01*
X149800000Y-41937500D02*
X149800000Y-36386028D01*
X149715316Y-36301344D02*
X149715316Y-35022816D01*
%TO.N,Net-(D35-K)*%
X144552652Y-45700000D02*
X145537500Y-45700000D01*
X141885736Y-43033084D02*
X144552652Y-45700000D01*
X141885736Y-41001764D02*
X141885736Y-43033084D01*
X140433224Y-39549252D02*
X141885736Y-41001764D01*
X138750000Y-37167500D02*
X138820000Y-37237500D01*
X139938248Y-39549252D02*
X140433224Y-39549252D01*
X138750000Y-36087500D02*
X138750000Y-37167500D01*
%TO.N,Net-(D34-K)*%
X144576916Y-45300000D02*
X145537500Y-45300000D01*
X142292868Y-43015952D02*
X144576916Y-45300000D01*
X140095736Y-38787500D02*
X142292868Y-40984632D01*
X142292868Y-40984632D02*
X142292868Y-43015952D01*
X136240000Y-38787500D02*
X140095736Y-38787500D01*
X134290000Y-36757500D02*
X134290000Y-36837500D01*
X134280000Y-36747500D02*
X134290000Y-36757500D01*
X134280000Y-28907500D02*
X134280000Y-36747500D01*
X134560000Y-28627500D02*
X134280000Y-28907500D01*
X136090000Y-28627500D02*
X134560000Y-28627500D01*
X136600000Y-29137500D02*
X136090000Y-28627500D01*
X134290000Y-36837500D02*
X136240000Y-38787500D01*
X136600000Y-31937500D02*
X136600000Y-29137500D01*
%TO.N,Net-(D33-K)*%
X135235000Y-30682500D02*
X135750000Y-30682500D01*
X134580000Y-31337500D02*
X135235000Y-30682500D01*
X134580000Y-36626028D02*
X134580000Y-31337500D01*
X136441472Y-38487500D02*
X134580000Y-36626028D01*
X142632944Y-40900444D02*
X140220000Y-38487500D01*
X142632944Y-42931764D02*
X142632944Y-40900444D01*
X140220000Y-38487500D02*
X136441472Y-38487500D01*
X144601180Y-44900000D02*
X142632944Y-42931764D01*
X145537500Y-44900000D02*
X144601180Y-44900000D01*
%TO.N,Net-(D32-K)*%
X140355888Y-38187500D02*
X142932944Y-40764556D01*
X142932944Y-42807500D02*
X144625444Y-44500000D01*
X136565736Y-38187500D02*
X140355888Y-38187500D01*
X135150000Y-36771764D02*
X136565736Y-38187500D01*
X144625444Y-44500000D02*
X145537500Y-44500000D01*
X135150000Y-34432500D02*
X135150000Y-36771764D01*
X142932944Y-40764556D02*
X142932944Y-42807500D01*
%TO.N,Net-(D31-K)*%
X135850000Y-36997500D02*
X135850000Y-35637500D01*
X136690000Y-37837500D02*
X135850000Y-36997500D01*
X136690000Y-37887500D02*
X136690000Y-37837500D01*
X143262208Y-40669556D02*
X140480152Y-37887500D01*
X143262208Y-42712500D02*
X143262208Y-40669556D01*
X144649708Y-44100000D02*
X143262208Y-42712500D01*
X145537500Y-44100000D02*
X144649708Y-44100000D01*
X140480152Y-37887500D02*
X136690000Y-37887500D01*
%TO.N,Net-(D30-K)*%
X144682500Y-43700000D02*
X144540000Y-43557500D01*
X145537500Y-43700000D02*
X144682500Y-43700000D01*
X144531472Y-43557500D02*
X144540000Y-43557500D01*
X143562208Y-40545292D02*
X143562208Y-42588236D01*
X140740000Y-37723084D02*
X143562208Y-40545292D01*
X140740000Y-34807500D02*
X140740000Y-37723084D01*
X140492500Y-34560000D02*
X140740000Y-34807500D01*
X143562208Y-42588236D02*
X144531472Y-43557500D01*
X138500000Y-34560000D02*
X140492500Y-34560000D01*
%TO.N,Net-(D29-K)*%
X140582500Y-30810000D02*
X139150000Y-30810000D01*
X141040000Y-31267500D02*
X140582500Y-30810000D01*
X141040000Y-37598820D02*
X141040000Y-31267500D01*
X143900000Y-40458820D02*
X141040000Y-37598820D01*
X143900000Y-42501764D02*
X143900000Y-40458820D01*
X144698236Y-43300000D02*
X143900000Y-42501764D01*
X145537500Y-43300000D02*
X144698236Y-43300000D01*
%TO.N,Net-(D28-K)*%
X144722500Y-42900000D02*
X145537500Y-42900000D01*
X144200000Y-42377500D02*
X144722500Y-42900000D01*
X144200000Y-40334556D02*
X144200000Y-42377500D01*
X141340000Y-27457500D02*
X141340000Y-37474556D01*
X141040000Y-27157500D02*
X141340000Y-27457500D01*
X136620000Y-27157500D02*
X141040000Y-27157500D01*
X136250000Y-27527500D02*
X136620000Y-27157500D01*
X141340000Y-37474556D02*
X144200000Y-40334556D01*
X136250000Y-28127500D02*
X136250000Y-27527500D01*
X136560000Y-28437500D02*
X136250000Y-28127500D01*
X137100000Y-28437500D02*
X136560000Y-28437500D01*
%TO.N,Net-(D27-K)*%
X146050000Y-36087500D02*
X146455000Y-36087500D01*
X145700000Y-36437500D02*
X146050000Y-36087500D01*
X144500000Y-42237500D02*
X144500000Y-41237500D01*
X144500000Y-41237500D02*
X145000000Y-40737500D01*
X144762500Y-42500000D02*
X144500000Y-42237500D01*
X145700000Y-37887500D02*
X145700000Y-36437500D01*
X145537500Y-42500000D02*
X144762500Y-42500000D01*
%TO.N,Net-(D26-K)*%
X144300000Y-29037500D02*
X144300000Y-31937500D01*
X143900000Y-28637500D02*
X144300000Y-29037500D01*
X142200000Y-28637500D02*
X143900000Y-28637500D01*
X141980000Y-28857500D02*
X142200000Y-28637500D01*
X143727208Y-39437500D02*
X141980000Y-37690292D01*
X141980000Y-37690292D02*
X141980000Y-28857500D01*
X146100000Y-39437500D02*
X143727208Y-39437500D01*
X146200000Y-39537500D02*
X146100000Y-39437500D01*
X146200000Y-41937500D02*
X146200000Y-39537500D01*
%TO.N,Net-(D25-K)*%
X143255000Y-30682500D02*
X143500000Y-30682500D01*
X142280000Y-37067500D02*
X142280000Y-31657500D01*
X142550000Y-37337500D02*
X142280000Y-37067500D01*
X142550000Y-37836028D02*
X142550000Y-37337500D01*
X143851472Y-39137500D02*
X142550000Y-37836028D01*
X142280000Y-31657500D02*
X143255000Y-30682500D01*
X146300000Y-39137500D02*
X143851472Y-39137500D01*
X146587868Y-41925368D02*
X146587868Y-39425368D01*
X146600000Y-41937500D02*
X146587868Y-41925368D01*
X146587868Y-39425368D02*
X146300000Y-39137500D01*
%TO.N,Net-(D24-K)*%
X146775736Y-38837500D02*
X143975736Y-38837500D01*
X146887868Y-38949632D02*
X146775736Y-38837500D01*
X146887868Y-40391663D02*
X146887868Y-38949632D01*
X143975736Y-38837500D02*
X142850000Y-37711764D01*
X142850000Y-37711764D02*
X142850000Y-34282500D01*
X147000000Y-40503795D02*
X146887868Y-40391663D01*
X147000000Y-41937500D02*
X147000000Y-40503795D01*
%TO.N,Net-(D23-K)*%
X147400000Y-40479531D02*
X147400000Y-41937500D01*
X147200000Y-40279531D02*
X147400000Y-40479531D01*
X147200000Y-38837500D02*
X147200000Y-40279531D01*
X146900000Y-38537500D02*
X147200000Y-38837500D01*
X144100000Y-38537500D02*
X146900000Y-38537500D01*
X143500000Y-37937500D02*
X144100000Y-38537500D01*
X143500000Y-35637500D02*
X143500000Y-37937500D01*
%TO.N,Net-(D19-K)*%
X149000000Y-39887500D02*
X149000000Y-41937500D01*
X148750000Y-39637500D02*
X149000000Y-39887500D01*
X153655000Y-36582500D02*
X153300000Y-36937500D01*
X153655000Y-36037500D02*
X153655000Y-36582500D01*
%TO.N,Net-(D16-K)*%
X158937500Y-42500000D02*
X150462500Y-42500000D01*
X159700000Y-39637500D02*
X159700000Y-41737500D01*
X159700000Y-41737500D02*
X158937500Y-42500000D01*
X159600000Y-39537500D02*
X159700000Y-39637500D01*
X158154416Y-39537500D02*
X159600000Y-39537500D01*
X156554416Y-37937500D02*
X158154416Y-39537500D01*
X150015316Y-36177080D02*
X151775736Y-37937500D01*
X151775736Y-37937500D02*
X156554416Y-37937500D01*
X150015316Y-34323719D02*
X150015316Y-36177080D01*
%TO.N,Net-(D15-K)*%
X159913236Y-42900000D02*
X150462500Y-42900000D01*
X160000000Y-42813236D02*
X159913236Y-42900000D01*
X159887868Y-39149632D02*
X160000000Y-39261764D01*
X158190812Y-39149632D02*
X159887868Y-39149632D01*
X156678680Y-37637500D02*
X158190812Y-39149632D01*
X151900000Y-37637500D02*
X156678680Y-37637500D01*
X150912816Y-36650316D02*
X151900000Y-37637500D01*
X150912816Y-35628719D02*
X150912816Y-36650316D01*
X160000000Y-39261764D02*
X160000000Y-42813236D01*
%TO.N,Net-(D14-K)*%
X159937500Y-43300000D02*
X150462500Y-43300000D01*
X160300000Y-39137500D02*
X160300000Y-42937500D01*
X159900000Y-38737500D02*
X160300000Y-39137500D01*
X158202944Y-38737500D02*
X159900000Y-38737500D01*
X160300000Y-42937500D02*
X159937500Y-43300000D01*
X155700000Y-36234556D02*
X158202944Y-38737500D01*
X155700000Y-34837500D02*
X155700000Y-36234556D01*
X155413719Y-34551219D02*
X155700000Y-34837500D01*
X153415316Y-34551219D02*
X155413719Y-34551219D01*
%TO.N,Net-(D13-K)*%
X160037500Y-43700000D02*
X150462500Y-43700000D01*
X160400000Y-38437500D02*
X160600000Y-38637500D01*
X158327208Y-38437500D02*
X160400000Y-38437500D01*
X156000000Y-36110292D02*
X158327208Y-38437500D01*
X160600000Y-43137500D02*
X160037500Y-43700000D01*
X156000000Y-31537500D02*
X156000000Y-36110292D01*
X160600000Y-38637500D02*
X160600000Y-43137500D01*
X155286219Y-30823719D02*
X156000000Y-31537500D01*
X154115316Y-30823719D02*
X155286219Y-30823719D01*
%TO.N,Net-(D12-K)*%
X160837500Y-44100000D02*
X150462500Y-44100000D01*
X161500000Y-39475979D02*
X161500000Y-43437500D01*
X161500000Y-43437500D02*
X160837500Y-44100000D01*
X161065380Y-39041359D02*
X161500000Y-39475979D01*
X161065380Y-38602880D02*
X161065380Y-39041359D01*
X156300000Y-29013236D02*
X156300000Y-35986028D01*
X156400000Y-27637500D02*
X156400000Y-28913236D01*
X156400000Y-28913236D02*
X156300000Y-29013236D01*
X155700000Y-26937500D02*
X156400000Y-27637500D01*
X156300000Y-35986028D02*
X158451472Y-38137500D01*
X158451472Y-38137500D02*
X160600000Y-38137500D01*
X152062816Y-27274684D02*
X152400000Y-26937500D01*
X152400000Y-26937500D02*
X155700000Y-26937500D01*
X152062816Y-28378719D02*
X152062816Y-27274684D01*
X160600000Y-38137500D02*
X161065380Y-38602880D01*
%TO.N,Net-(D11-K)*%
X160967652Y-44500000D02*
X150462500Y-44500000D01*
X161800000Y-38856740D02*
X161800000Y-43667652D01*
X161800000Y-43667652D02*
X160967652Y-44500000D01*
X161715380Y-38772120D02*
X161800000Y-38856740D01*
X160050000Y-36887500D02*
X160309318Y-36887500D01*
X161055000Y-36037500D02*
X160900000Y-36037500D01*
X160900000Y-36037500D02*
X160050000Y-36887500D01*
%TO.N,Net-(D10-K)*%
X160991916Y-44900000D02*
X150462500Y-44900000D01*
X161700000Y-37837500D02*
X162400000Y-38537500D01*
X162400000Y-43491916D02*
X160991916Y-44900000D01*
X158575736Y-37837500D02*
X161700000Y-37837500D01*
X156600000Y-35861764D02*
X158575736Y-37837500D01*
X156600000Y-29137500D02*
X156600000Y-35861764D01*
X157387868Y-28349632D02*
X156600000Y-29137500D01*
X158287868Y-28349632D02*
X157387868Y-28349632D01*
X162400000Y-38537500D02*
X162400000Y-43491916D01*
X158955000Y-29016764D02*
X158287868Y-28349632D01*
X158955000Y-31887500D02*
X158955000Y-29016764D01*
%TO.N,Net-(D9-K)*%
X161016180Y-45300000D02*
X150462500Y-45300000D01*
X162700000Y-43616180D02*
X161016180Y-45300000D01*
X162700000Y-38337500D02*
X162700000Y-43616180D01*
X161900000Y-37537500D02*
X162700000Y-38337500D01*
X158700000Y-37537500D02*
X161900000Y-37537500D01*
X156957500Y-35795000D02*
X158700000Y-37537500D01*
X156957500Y-31680000D02*
X156957500Y-35795000D01*
X157100000Y-31537500D02*
X156957500Y-31680000D01*
X157600000Y-31537500D02*
X157100000Y-31537500D01*
X158077500Y-31060000D02*
X157600000Y-31537500D01*
X158077500Y-30660000D02*
X158077500Y-31060000D01*
%TO.N,Net-(D8-K)*%
X161040444Y-45700000D02*
X150462500Y-45700000D01*
X163000000Y-35386028D02*
X163000000Y-43740444D01*
X162751472Y-35137500D02*
X163000000Y-35386028D01*
X161491026Y-35137500D02*
X162751472Y-35137500D01*
X161286026Y-35342500D02*
X161491026Y-35137500D01*
X160360000Y-35342500D02*
X161286026Y-35342500D01*
X160282500Y-35420000D02*
X160360000Y-35342500D01*
X163000000Y-43740444D02*
X161040444Y-45700000D01*
X160282500Y-35996026D02*
X160282500Y-35420000D01*
X159871026Y-36407500D02*
X160282500Y-35996026D01*
X158108238Y-36407500D02*
X159871026Y-36407500D01*
X157527500Y-35826762D02*
X158108238Y-36407500D01*
X157527500Y-34310000D02*
X157527500Y-35826762D01*
%TO.N,Net-(D7-K)*%
X163300000Y-43864708D02*
X161063604Y-46101104D01*
X161062500Y-46100000D02*
X150462500Y-46100000D01*
X163300000Y-35261764D02*
X163300000Y-43864708D01*
X162875736Y-34837500D02*
X163300000Y-35261764D01*
X161366762Y-34837500D02*
X162875736Y-34837500D01*
X160195000Y-35042500D02*
X161161762Y-35042500D01*
X159982500Y-35255000D02*
X160195000Y-35042500D01*
X159982500Y-35871762D02*
X159982500Y-35255000D01*
X159746762Y-36107500D02*
X159982500Y-35871762D01*
X158370000Y-36107500D02*
X159746762Y-36107500D01*
X158205000Y-35942500D02*
X158370000Y-36107500D01*
X158205000Y-35537500D02*
X158205000Y-35942500D01*
X161161762Y-35042500D02*
X161366762Y-34837500D01*
X161063604Y-46101104D02*
X161062500Y-46100000D01*
%TO.N,Net-(D6-K)*%
X162872500Y-34410000D02*
X160827500Y-34410000D01*
X163600000Y-35137500D02*
X162872500Y-34410000D01*
X163600000Y-43988972D02*
X163600000Y-35137500D01*
X161088972Y-46500000D02*
X163600000Y-43988972D01*
X150462500Y-46500000D02*
X161088972Y-46500000D01*
%TO.N,Net-(D5-K)*%
X163900000Y-44113236D02*
X161113236Y-46900000D01*
X163900000Y-31437500D02*
X163900000Y-44113236D01*
X163072500Y-30610000D02*
X163900000Y-31437500D01*
X161477500Y-30610000D02*
X163072500Y-30610000D01*
X161113236Y-46900000D02*
X150462500Y-46900000D01*
%TO.N,Net-(D4-K)*%
X158600000Y-28237500D02*
X159405000Y-28237500D01*
X158400000Y-28037500D02*
X158600000Y-28237500D01*
X158400000Y-27237500D02*
X158400000Y-28037500D01*
X161700000Y-27037500D02*
X158600000Y-27037500D01*
X158600000Y-27037500D02*
X158400000Y-27237500D01*
X164200000Y-44237500D02*
X164200000Y-29537500D01*
X164200000Y-29537500D02*
X161700000Y-27037500D01*
X161137500Y-47300000D02*
X164200000Y-44237500D01*
X150462500Y-47300000D02*
X161137500Y-47300000D01*
D64*
%TO.N,Earth*%
X199362000Y-74900000D02*
X197740000Y-73278000D01*
X202600000Y-74900000D02*
X199362000Y-74900000D01*
X203600000Y-73900000D02*
X202600000Y-74900000D01*
X203600000Y-56700000D02*
X203600000Y-73900000D01*
X202768000Y-55868000D02*
X203600000Y-56700000D01*
X198890000Y-55868000D02*
X202768000Y-55868000D01*
X197740000Y-57018000D02*
X198890000Y-55868000D01*
X188862500Y-55150000D02*
X195872000Y-55150000D01*
X195872000Y-55150000D02*
X197740000Y-57018000D01*
%TO.N,Net-(C18-Pad1)*%
X185587500Y-55000000D02*
X185737500Y-55150000D01*
X184600000Y-55000000D02*
X185587500Y-55000000D01*
X183800000Y-55800000D02*
X184600000Y-55000000D01*
X183750000Y-68150000D02*
X183800000Y-68200000D01*
X181275000Y-68150000D02*
X183750000Y-68150000D01*
X183950000Y-64650000D02*
X183800000Y-64800000D01*
X185737500Y-64650000D02*
X183950000Y-64650000D01*
X181462500Y-61800000D02*
X181412500Y-61750000D01*
X183800000Y-61800000D02*
X181462500Y-61800000D01*
X184050000Y-70450000D02*
X183800000Y-70200000D01*
X185787500Y-70450000D02*
X184050000Y-70450000D01*
%TO.N,Net-(J1-Pad7)*%
X195100000Y-70450000D02*
X187612500Y-70450000D01*
X196850000Y-68700000D02*
X195100000Y-70450000D01*
X197866000Y-67684000D02*
X196850000Y-68700000D01*
X198630000Y-67684000D02*
X197866000Y-67684000D01*
%TO.N,Net-(J1-Pad4)*%
X197866000Y-65652000D02*
X196850000Y-64636000D01*
X198630000Y-65652000D02*
X197866000Y-65652000D01*
X190850000Y-64650000D02*
X190900000Y-64600000D01*
X187562500Y-64650000D02*
X190850000Y-64650000D01*
%TO.N,Net-(T1-CT_3)*%
X179425000Y-68125000D02*
X179450000Y-68150000D01*
X176250000Y-68125000D02*
X179425000Y-68125000D01*
%TO.N,Net-(T1-RX-)*%
X194123000Y-69395000D02*
X176250000Y-69395000D01*
X196850000Y-66668000D02*
X194123000Y-69395000D01*
D66*
%TO.N,Net-(T1-RX1+)*%
X194680000Y-63620000D02*
X194500000Y-63800000D01*
X198630000Y-63620000D02*
X194680000Y-63620000D01*
D64*
%TO.N,Net-(T1-TX1-)*%
X189604000Y-62604000D02*
X196850000Y-62604000D01*
X189600000Y-62600000D02*
X189604000Y-62604000D01*
X189350000Y-62600000D02*
X189600000Y-62600000D01*
X188905000Y-63045000D02*
X189350000Y-62600000D01*
X176250000Y-63045000D02*
X188905000Y-63045000D01*
%TO.N,Net-(T1-CT_4)*%
X179562500Y-61775000D02*
X179587500Y-61750000D01*
X176250000Y-61775000D02*
X179562500Y-61775000D01*
%TO.N,Net-(T1-TX1+)*%
X181902076Y-60950000D02*
X197992000Y-60950000D01*
X181457076Y-60505000D02*
X181902076Y-60950000D01*
X176250000Y-60505000D02*
X181457076Y-60505000D01*
X197992000Y-60950000D02*
X198630000Y-61588000D01*
%TO.N,Net-(T1-RX1+)*%
X193250000Y-63800000D02*
X194500000Y-63800000D01*
X190195000Y-66855000D02*
X193250000Y-63800000D01*
X176250000Y-66855000D02*
X190195000Y-66855000D01*
%TD*%
M02*
