%TF.GenerationSoftware,KiCad,Pcbnew,8.0.5*%
%TF.CreationDate,2024-09-23T23:51:48+09:00*%
%TF.ProjectId,MCU_Unit,4d43555f-556e-4697-942e-6b696361645f,rev?*%
%TF.SameCoordinates,Original*%
%TF.FileFunction,Soldermask,Top*%
%TF.FilePolarity,Negative*%
%FSLAX46Y46*%
G04 Gerber Fmt 4.6, Leading zero omitted, Abs format (unit mm)*
G04 Created by KiCad (PCBNEW 8.0.5) date 2024-09-23 23:51:48*
%MOMM*%
%LPD*%
G01*
G04 APERTURE LIST*
G04 Aperture macros list*
%AMRoundRect*
0 Rectangle with rounded corners*
0 $1 Rounding radius*
0 $2 $3 $4 $5 $6 $7 $8 $9 X,Y pos of 4 corners*
0 Add a 4 corners polygon primitive as box body*
4,1,4,$2,$3,$4,$5,$6,$7,$8,$9,$2,$3,0*
0 Add four circle primitives for the rounded corners*
1,1,$1+$1,$2,$3*
1,1,$1+$1,$4,$5*
1,1,$1+$1,$6,$7*
1,1,$1+$1,$8,$9*
0 Add four rect primitives between the rounded corners*
20,1,$1+$1,$2,$3,$4,$5,0*
20,1,$1+$1,$4,$5,$6,$7,0*
20,1,$1+$1,$6,$7,$8,$9,0*
20,1,$1+$1,$8,$9,$2,$3,0*%
G04 Aperture macros list end*
%ADD10R,1.700000X0.750000*%
%ADD11C,1.500000*%
%ADD12R,3.000000X1.600000*%
%ADD13R,6.000000X6.000000*%
%ADD14R,1.600000X3.000000*%
%ADD15R,1.850000X4.100000*%
%ADD16R,2.790000X0.740000*%
%ADD17R,1.700000X1.700000*%
%ADD18O,1.700000X1.700000*%
%ADD19R,0.300000X1.000000*%
%ADD20R,2.000000X1.300000*%
%ADD21R,0.600000X0.900000*%
%ADD22C,3.250000*%
%ADD23R,1.500000X1.500000*%
%ADD24C,2.300000*%
%ADD25RoundRect,0.160000X-0.222500X-0.160000X0.222500X-0.160000X0.222500X0.160000X-0.222500X0.160000X0*%
%ADD26RoundRect,0.160000X0.160000X-0.222500X0.160000X0.222500X-0.160000X0.222500X-0.160000X-0.222500X0*%
%ADD27RoundRect,0.237500X0.287500X0.237500X-0.287500X0.237500X-0.287500X-0.237500X0.287500X-0.237500X0*%
%ADD28R,0.950000X1.050000*%
%ADD29R,0.450000X1.750000*%
%ADD30RoundRect,0.050000X0.362500X0.050000X-0.362500X0.050000X-0.362500X-0.050000X0.362500X-0.050000X0*%
%ADD31RoundRect,0.050000X0.050000X0.362500X-0.050000X0.362500X-0.050000X-0.362500X0.050000X-0.362500X0*%
%ADD32R,2.800000X3.800000*%
%ADD33RoundRect,0.150000X-0.825000X-0.150000X0.825000X-0.150000X0.825000X0.150000X-0.825000X0.150000X0*%
%ADD34RoundRect,0.050000X-0.285000X-0.100000X0.285000X-0.100000X0.285000X0.100000X-0.285000X0.100000X0*%
%ADD35R,1.050000X0.950000*%
%ADD36RoundRect,0.062500X-0.062500X0.325000X-0.062500X-0.325000X0.062500X-0.325000X0.062500X0.325000X0*%
%ADD37RoundRect,0.062500X-0.325000X0.062500X-0.325000X-0.062500X0.325000X-0.062500X0.325000X0.062500X0*%
%ADD38R,2.450000X2.450000*%
%ADD39RoundRect,0.075000X-0.662500X-0.075000X0.662500X-0.075000X0.662500X0.075000X-0.662500X0.075000X0*%
%ADD40RoundRect,0.075000X-0.075000X-0.662500X0.075000X-0.662500X0.075000X0.662500X-0.075000X0.662500X0*%
%ADD41RoundRect,0.237500X-0.250000X-0.237500X0.250000X-0.237500X0.250000X0.237500X-0.250000X0.237500X0*%
%ADD42RoundRect,0.237500X-0.237500X0.250000X-0.237500X-0.250000X0.237500X-0.250000X0.237500X0.250000X0*%
%ADD43C,1.600000*%
%ADD44O,1.600000X1.600000*%
%ADD45RoundRect,0.237500X0.250000X0.237500X-0.250000X0.237500X-0.250000X-0.237500X0.250000X-0.237500X0*%
%ADD46RoundRect,0.237500X0.237500X-0.250000X0.237500X0.250000X-0.237500X0.250000X-0.237500X-0.250000X0*%
%ADD47C,1.400000*%
%ADD48R,3.500000X3.500000*%
%ADD49C,3.500000*%
%ADD50C,0.900000*%
%ADD51R,2.500000X0.500000*%
%ADD52R,2.500000X2.000000*%
%ADD53C,1.200000*%
%ADD54RoundRect,0.250000X-0.750000X0.600000X-0.750000X-0.600000X0.750000X-0.600000X0.750000X0.600000X0*%
%ADD55O,2.000000X1.700000*%
%ADD56RoundRect,0.237500X-0.287500X-0.237500X0.287500X-0.237500X0.287500X0.237500X-0.287500X0.237500X0*%
%ADD57RoundRect,0.237500X-0.237500X0.300000X-0.237500X-0.300000X0.237500X-0.300000X0.237500X0.300000X0*%
%ADD58RoundRect,0.237500X0.237500X-0.300000X0.237500X0.300000X-0.237500X0.300000X-0.237500X-0.300000X0*%
%ADD59RoundRect,0.237500X0.300000X0.237500X-0.300000X0.237500X-0.300000X-0.237500X0.300000X-0.237500X0*%
%ADD60RoundRect,0.237500X-0.300000X-0.237500X0.300000X-0.237500X0.300000X0.237500X-0.300000X0.237500X0*%
%ADD61RoundRect,0.250001X-0.799999X1.999999X-0.799999X-1.999999X0.799999X-1.999999X0.799999X1.999999X0*%
%ADD62RoundRect,0.250001X0.799999X-1.999999X0.799999X1.999999X-0.799999X1.999999X-0.799999X-1.999999X0*%
%ADD63RoundRect,0.250000X-0.412500X-0.650000X0.412500X-0.650000X0.412500X0.650000X-0.412500X0.650000X0*%
%ADD64RoundRect,0.155000X0.212500X0.155000X-0.212500X0.155000X-0.212500X-0.155000X0.212500X-0.155000X0*%
G04 APERTURE END LIST*
D10*
%TO.C,T1*%
X176250000Y-60505000D03*
X176250000Y-61775000D03*
X176250000Y-63045000D03*
X176250000Y-64315000D03*
X176250000Y-65585000D03*
X176250000Y-66855000D03*
X176250000Y-68125000D03*
X176250000Y-69395000D03*
X167650000Y-69395000D03*
X167650000Y-68125000D03*
X167650000Y-66855000D03*
X167650000Y-65585000D03*
X167650000Y-64315000D03*
X167650000Y-63045000D03*
X167650000Y-61775000D03*
X167650000Y-60505000D03*
%TD*%
D11*
%TO.C,S1*%
X35200000Y-92050000D03*
X41700000Y-92050000D03*
X35200000Y-96550000D03*
X41700000Y-96550000D03*
%TD*%
D12*
%TO.C,Q2*%
X65900000Y-51175000D03*
D13*
X59400000Y-48875000D03*
D12*
X65900000Y-46575000D03*
%TD*%
D14*
%TO.C,Q1*%
X53200000Y-42625000D03*
D13*
X50900000Y-49125000D03*
D14*
X48600000Y-42625000D03*
%TD*%
D15*
%TO.C,L1*%
X88125000Y-49150000D03*
X91775000Y-49150000D03*
%TD*%
D16*
%TO.C,J12*%
X38564355Y-64076075D03*
X42634355Y-64076075D03*
X38564355Y-65346075D03*
X42634355Y-65346075D03*
X38564355Y-66616075D03*
X42634355Y-66616075D03*
X38564355Y-67886075D03*
X42634355Y-67886075D03*
X38564355Y-69156075D03*
X42634355Y-69156075D03*
X38564355Y-70426075D03*
X42634355Y-70426075D03*
X38564355Y-71696075D03*
X42634355Y-71696075D03*
%TD*%
D17*
%TO.C,J10*%
X94370000Y-128287500D03*
D18*
X94370000Y-125747500D03*
X91830000Y-128287500D03*
X91830000Y-125747500D03*
X89290000Y-128287500D03*
X89290000Y-125747500D03*
X86750000Y-128287500D03*
X86750000Y-125747500D03*
X84210000Y-128287500D03*
X84210000Y-125747500D03*
X81670000Y-128287500D03*
X81670000Y-125747500D03*
X79130000Y-128287500D03*
X79130000Y-125747500D03*
X76590000Y-128287500D03*
X76590000Y-125747500D03*
X74050000Y-128287500D03*
X74050000Y-125747500D03*
X71510000Y-128287500D03*
X71510000Y-125747500D03*
X68970000Y-128287500D03*
X68970000Y-125747500D03*
X66430000Y-128287500D03*
X66430000Y-125747500D03*
X63890000Y-128287500D03*
X63890000Y-125747500D03*
X61350000Y-128287500D03*
X61350000Y-125747500D03*
X58810000Y-128287500D03*
X58810000Y-125747500D03*
X56270000Y-128287500D03*
X56270000Y-125747500D03*
X53730000Y-128287500D03*
X53730000Y-125747500D03*
X51190000Y-128287500D03*
X51190000Y-125747500D03*
X48650000Y-128287500D03*
X48650000Y-125747500D03*
X46110000Y-128287500D03*
X46110000Y-125747500D03*
%TD*%
D19*
%TO.C,J8*%
X91175000Y-104175000D03*
X91675000Y-104175000D03*
X92175000Y-104175000D03*
X92675000Y-104175000D03*
X93175000Y-104175000D03*
X93675000Y-104175000D03*
X94175000Y-104175000D03*
X94675000Y-104175000D03*
X95175000Y-104175000D03*
X95675000Y-104175000D03*
X96175000Y-104175000D03*
X96675000Y-104175000D03*
X97175000Y-104175000D03*
X97675000Y-104175000D03*
X98175000Y-104175000D03*
D20*
X88875000Y-106875000D03*
X100475000Y-106875000D03*
%TD*%
D18*
%TO.C,J6*%
X97970000Y-125750000D03*
X97970000Y-128290000D03*
X100510000Y-125750000D03*
X100510000Y-128290000D03*
X103050000Y-125750000D03*
X103050000Y-128290000D03*
X105590000Y-125750000D03*
X105590000Y-128290000D03*
X108130000Y-125750000D03*
X108130000Y-128290000D03*
X110670000Y-125750000D03*
X110670000Y-128290000D03*
X113210000Y-125750000D03*
X113210000Y-128290000D03*
X115750000Y-125750000D03*
X115750000Y-128290000D03*
X118290000Y-125750000D03*
X118290000Y-128290000D03*
X120830000Y-125750000D03*
X120830000Y-128290000D03*
X123370000Y-125750000D03*
X123370000Y-128290000D03*
X125910000Y-125750000D03*
X125910000Y-128290000D03*
X128450000Y-125750000D03*
X128450000Y-128290000D03*
X130990000Y-125750000D03*
X130990000Y-128290000D03*
X133530000Y-125750000D03*
X133530000Y-128290000D03*
X136070000Y-125750000D03*
X136070000Y-128290000D03*
X138610000Y-125750000D03*
X138610000Y-128290000D03*
X141150000Y-125750000D03*
X141150000Y-128290000D03*
X143690000Y-125750000D03*
X143690000Y-128290000D03*
X146230000Y-125750000D03*
D17*
X146230000Y-128290000D03*
%TD*%
D21*
%TO.C,IC1*%
X50150000Y-95150000D03*
X49200000Y-95150000D03*
X48250000Y-95150000D03*
X48250000Y-97950000D03*
X50150000Y-97950000D03*
%TD*%
D22*
%TO.C,J1*%
X201170000Y-58798000D03*
X201170000Y-71498000D03*
D23*
X198630000Y-61588000D03*
D11*
X196850000Y-62604000D03*
X198630000Y-63620000D03*
X196850000Y-64636000D03*
X198630000Y-65652000D03*
X196850000Y-66668000D03*
X198630000Y-67684000D03*
X196850000Y-68700000D03*
D24*
X197740000Y-57018000D03*
X197740000Y-73278000D03*
%TD*%
D25*
%TO.C,D11*%
X161055000Y-36037500D03*
X162200000Y-36037500D03*
%TD*%
%TO.C,D10*%
X158955000Y-31887500D03*
X160100000Y-31887500D03*
%TD*%
D26*
%TO.C,D9*%
X158077500Y-30660000D03*
X158077500Y-29515000D03*
%TD*%
%TO.C,D8*%
X157527500Y-34310000D03*
X157527500Y-33165000D03*
%TD*%
D25*
%TO.C,D7*%
X158205000Y-35537500D03*
X159350000Y-35537500D03*
%TD*%
D26*
%TO.C,D6*%
X160827500Y-34410000D03*
X160827500Y-33265000D03*
%TD*%
%TO.C,D5*%
X161477500Y-30610000D03*
X161477500Y-29465000D03*
%TD*%
D25*
%TO.C,D4*%
X159405000Y-28237500D03*
X160550000Y-28237500D03*
%TD*%
%TO.C,D35*%
X138750000Y-36087500D03*
X139895000Y-36087500D03*
%TD*%
%TO.C,D34*%
X136600000Y-31937500D03*
X137745000Y-31937500D03*
%TD*%
D26*
%TO.C,D33*%
X135750000Y-30682500D03*
X135750000Y-29537500D03*
%TD*%
%TO.C,D32*%
X135150000Y-34432500D03*
X135150000Y-33287500D03*
%TD*%
D25*
%TO.C,D31*%
X135850000Y-35637500D03*
X136995000Y-35637500D03*
%TD*%
D26*
%TO.C,D30*%
X138500000Y-34560000D03*
X138500000Y-33415000D03*
%TD*%
%TO.C,D29*%
X139150000Y-30810000D03*
X139150000Y-29665000D03*
%TD*%
D25*
%TO.C,D28*%
X137100000Y-28437500D03*
X138245000Y-28437500D03*
%TD*%
%TO.C,D27*%
X146455000Y-36087500D03*
X147600000Y-36087500D03*
%TD*%
%TO.C,D26*%
X144300000Y-31937500D03*
X145445000Y-31937500D03*
%TD*%
D26*
%TO.C,D25*%
X143500000Y-30682500D03*
X143500000Y-29537500D03*
%TD*%
%TO.C,D24*%
X142850000Y-34282500D03*
X142850000Y-33137500D03*
%TD*%
D25*
%TO.C,D23*%
X143500000Y-35637500D03*
X144645000Y-35637500D03*
%TD*%
D26*
%TO.C,D22*%
X146200000Y-34532500D03*
X146200000Y-33387500D03*
%TD*%
%TO.C,D21*%
X146800000Y-30782500D03*
X146800000Y-29637500D03*
%TD*%
D25*
%TO.C,D20*%
X144750000Y-28437500D03*
X145895000Y-28437500D03*
%TD*%
%TO.C,D19*%
X153655000Y-36037500D03*
X154800000Y-36037500D03*
%TD*%
%TO.C,D18*%
X151515316Y-31928719D03*
X152660316Y-31928719D03*
%TD*%
D26*
%TO.C,D17*%
X150715316Y-30673719D03*
X150715316Y-29528719D03*
%TD*%
%TO.C,D16*%
X150015316Y-34323719D03*
X150015316Y-33178719D03*
%TD*%
D25*
%TO.C,D15*%
X152057816Y-35628719D03*
X150912816Y-35628719D03*
%TD*%
D26*
%TO.C,D14*%
X153415316Y-34551219D03*
X153415316Y-33406219D03*
%TD*%
%TO.C,D13*%
X154115316Y-30823719D03*
X154115316Y-29678719D03*
%TD*%
D25*
%TO.C,D12*%
X152062816Y-28378719D03*
X153207816Y-28378719D03*
%TD*%
D27*
%TO.C,D2*%
X160675000Y-55800000D03*
X158925000Y-55800000D03*
%TD*%
%TO.C,D1*%
X160675000Y-57400000D03*
X158925000Y-57400000D03*
%TD*%
D28*
%TO.C,U8*%
X57175000Y-89775000D03*
X57175000Y-91625000D03*
X58625000Y-91625000D03*
X58625000Y-89775000D03*
%TD*%
D29*
%TO.C,U7*%
X181875000Y-91500000D03*
X182525000Y-91500000D03*
X183175000Y-91500000D03*
X183825000Y-91500000D03*
X184475000Y-91500000D03*
X185125000Y-91500000D03*
X185775000Y-91500000D03*
X186425000Y-91500000D03*
X187075000Y-91500000D03*
X187725000Y-91500000D03*
X188375000Y-91500000D03*
X189025000Y-91500000D03*
X189675000Y-91500000D03*
X190325000Y-91500000D03*
X190325000Y-84300000D03*
X189675000Y-84300000D03*
X189025000Y-84300000D03*
X188375000Y-84300000D03*
X187725000Y-84300000D03*
X187075000Y-84300000D03*
X186425000Y-84300000D03*
X185775000Y-84300000D03*
X185125000Y-84300000D03*
X184475000Y-84300000D03*
X183825000Y-84300000D03*
X183175000Y-84300000D03*
X182525000Y-84300000D03*
X181875000Y-84300000D03*
%TD*%
D30*
%TO.C,U6*%
X150462500Y-47300000D03*
X150462500Y-46900000D03*
X150462500Y-46500000D03*
X150462500Y-46100000D03*
X150462500Y-45700000D03*
X150462500Y-45300000D03*
X150462500Y-44900000D03*
X150462500Y-44500000D03*
X150462500Y-44100000D03*
X150462500Y-43700000D03*
X150462500Y-43300000D03*
X150462500Y-42900000D03*
X150462500Y-42500000D03*
D31*
X149800000Y-41937500D03*
X149400000Y-41937500D03*
X149000000Y-41937500D03*
X148600000Y-41937500D03*
X148200000Y-41937500D03*
X147800000Y-41937500D03*
X147400000Y-41937500D03*
X147000000Y-41937500D03*
X146600000Y-41937500D03*
X146200000Y-41937500D03*
D30*
X145537500Y-42500000D03*
X145537500Y-42900000D03*
X145537500Y-43300000D03*
X145537500Y-43700000D03*
X145537500Y-44100000D03*
X145537500Y-44500000D03*
X145537500Y-44900000D03*
X145537500Y-45300000D03*
X145537500Y-45700000D03*
X145537500Y-46100000D03*
X145537500Y-46500000D03*
X145537500Y-46900000D03*
X145537500Y-47300000D03*
D31*
X146200000Y-47862500D03*
X146600000Y-47862500D03*
X147000000Y-47862500D03*
X147400000Y-47862500D03*
X147800000Y-47862500D03*
X148200000Y-47862500D03*
X148600000Y-47862500D03*
X149000000Y-47862500D03*
X149400000Y-47862500D03*
X149800000Y-47862500D03*
D32*
X148000000Y-44900000D03*
%TD*%
D33*
%TO.C,U5*%
X179829173Y-123692996D03*
X179829173Y-124962996D03*
X179829173Y-126232996D03*
X179829173Y-127502996D03*
X184779173Y-127502996D03*
X184779173Y-126232996D03*
X184779173Y-124962996D03*
X184779173Y-123692996D03*
%TD*%
D34*
%TO.C,U4*%
X85560000Y-43387500D03*
X85560000Y-43887500D03*
X85560000Y-44387500D03*
X85560000Y-44887500D03*
X87040000Y-44887500D03*
X87040000Y-44387500D03*
X87040000Y-43887500D03*
X87040000Y-43387500D03*
%TD*%
D35*
%TO.C,U3*%
X154100000Y-58600000D03*
X152250000Y-58600000D03*
X152250000Y-60050000D03*
X154100000Y-60050000D03*
%TD*%
D36*
%TO.C,U2*%
X153500000Y-62500000D03*
X153000000Y-62500000D03*
X152500000Y-62500000D03*
X152000000Y-62500000D03*
X151500000Y-62500000D03*
X151000000Y-62500000D03*
D37*
X150262500Y-63237500D03*
X150262500Y-63737500D03*
X150262500Y-64237500D03*
X150262500Y-64737500D03*
X150262500Y-65237500D03*
X150262500Y-65737500D03*
D36*
X151000000Y-66475000D03*
X151500000Y-66475000D03*
X152000000Y-66475000D03*
X152500000Y-66475000D03*
X153000000Y-66475000D03*
X153500000Y-66475000D03*
D37*
X154237500Y-65737500D03*
X154237500Y-65237500D03*
X154237500Y-64737500D03*
X154237500Y-64237500D03*
X154237500Y-63737500D03*
X154237500Y-63237500D03*
D38*
X152250000Y-64487500D03*
%TD*%
D39*
%TO.C,U1*%
X61737500Y-80650000D03*
X61737500Y-81150000D03*
X61737500Y-81650000D03*
X61737500Y-82150000D03*
X61737500Y-82650000D03*
X61737500Y-83150000D03*
X61737500Y-83650000D03*
X61737500Y-84150000D03*
X61737500Y-84650000D03*
X61737500Y-85150000D03*
X61737500Y-85650000D03*
X61737500Y-86150000D03*
X61737500Y-86650000D03*
X61737500Y-87150000D03*
X61737500Y-87650000D03*
X61737500Y-88150000D03*
X61737500Y-88650000D03*
X61737500Y-89150000D03*
X61737500Y-89650000D03*
X61737500Y-90150000D03*
X61737500Y-90650000D03*
X61737500Y-91150000D03*
X61737500Y-91650000D03*
X61737500Y-92150000D03*
X61737500Y-92650000D03*
X61737500Y-93150000D03*
X61737500Y-93650000D03*
X61737500Y-94150000D03*
X61737500Y-94650000D03*
X61737500Y-95150000D03*
X61737500Y-95650000D03*
X61737500Y-96150000D03*
X61737500Y-96650000D03*
X61737500Y-97150000D03*
X61737500Y-97650000D03*
X61737500Y-98150000D03*
D40*
X63650000Y-100062500D03*
X64150000Y-100062500D03*
X64650000Y-100062500D03*
X65150000Y-100062500D03*
X65650000Y-100062500D03*
X66150000Y-100062500D03*
X66650000Y-100062500D03*
X67150000Y-100062500D03*
X67650000Y-100062500D03*
X68150000Y-100062500D03*
X68650000Y-100062500D03*
X69150000Y-100062500D03*
X69650000Y-100062500D03*
X70150000Y-100062500D03*
X70650000Y-100062500D03*
X71150000Y-100062500D03*
X71650000Y-100062500D03*
X72150000Y-100062500D03*
X72650000Y-100062500D03*
X73150000Y-100062500D03*
X73650000Y-100062500D03*
X74150000Y-100062500D03*
X74650000Y-100062500D03*
X75150000Y-100062500D03*
X75650000Y-100062500D03*
X76150000Y-100062500D03*
X76650000Y-100062500D03*
X77150000Y-100062500D03*
X77650000Y-100062500D03*
X78150000Y-100062500D03*
X78650000Y-100062500D03*
X79150000Y-100062500D03*
X79650000Y-100062500D03*
X80150000Y-100062500D03*
X80650000Y-100062500D03*
X81150000Y-100062500D03*
D39*
X83062500Y-98150000D03*
X83062500Y-97650000D03*
X83062500Y-97150000D03*
X83062500Y-96650000D03*
X83062500Y-96150000D03*
X83062500Y-95650000D03*
X83062500Y-95150000D03*
X83062500Y-94650000D03*
X83062500Y-94150000D03*
X83062500Y-93650000D03*
X83062500Y-93150000D03*
X83062500Y-92650000D03*
X83062500Y-92150000D03*
X83062500Y-91650000D03*
X83062500Y-91150000D03*
X83062500Y-90650000D03*
X83062500Y-90150000D03*
X83062500Y-89650000D03*
X83062500Y-89150000D03*
X83062500Y-88650000D03*
X83062500Y-88150000D03*
X83062500Y-87650000D03*
X83062500Y-87150000D03*
X83062500Y-86650000D03*
X83062500Y-86150000D03*
X83062500Y-85650000D03*
X83062500Y-85150000D03*
X83062500Y-84650000D03*
X83062500Y-84150000D03*
X83062500Y-83650000D03*
X83062500Y-83150000D03*
X83062500Y-82650000D03*
X83062500Y-82150000D03*
X83062500Y-81650000D03*
X83062500Y-81150000D03*
X83062500Y-80650000D03*
D40*
X81150000Y-78737500D03*
X80650000Y-78737500D03*
X80150000Y-78737500D03*
X79650000Y-78737500D03*
X79150000Y-78737500D03*
X78650000Y-78737500D03*
X78150000Y-78737500D03*
X77650000Y-78737500D03*
X77150000Y-78737500D03*
X76650000Y-78737500D03*
X76150000Y-78737500D03*
X75650000Y-78737500D03*
X75150000Y-78737500D03*
X74650000Y-78737500D03*
X74150000Y-78737500D03*
X73650000Y-78737500D03*
X73150000Y-78737500D03*
X72650000Y-78737500D03*
X72150000Y-78737500D03*
X71650000Y-78737500D03*
X71150000Y-78737500D03*
X70650000Y-78737500D03*
X70150000Y-78737500D03*
X69650000Y-78737500D03*
X69150000Y-78737500D03*
X68650000Y-78737500D03*
X68150000Y-78737500D03*
X67650000Y-78737500D03*
X67150000Y-78737500D03*
X66650000Y-78737500D03*
X66150000Y-78737500D03*
X65650000Y-78737500D03*
X65150000Y-78737500D03*
X64650000Y-78737500D03*
X64150000Y-78737500D03*
X63650000Y-78737500D03*
%TD*%
D41*
%TO.C,R44*%
X136575000Y-60300000D03*
X138400000Y-60300000D03*
%TD*%
%TO.C,R43*%
X136575000Y-57790000D03*
X138400000Y-57790000D03*
%TD*%
D42*
%TO.C,R42*%
X147450000Y-56800000D03*
X147450000Y-58625000D03*
%TD*%
D43*
%TO.C,R41*%
X194500000Y-120120000D03*
D44*
X194500000Y-130280000D03*
%TD*%
D41*
%TO.C,R40*%
X188487500Y-126660000D03*
X190312500Y-126660000D03*
%TD*%
%TO.C,R39*%
X188450000Y-124150000D03*
X190275000Y-124150000D03*
%TD*%
%TO.C,R38*%
X126687500Y-77190000D03*
X128512500Y-77190000D03*
%TD*%
%TO.C,R37*%
X126687500Y-74680000D03*
X128512500Y-74680000D03*
%TD*%
%TO.C,R36*%
X126687500Y-72170000D03*
X128512500Y-72170000D03*
%TD*%
D42*
%TO.C,R35*%
X145890000Y-56787500D03*
X145890000Y-58612500D03*
%TD*%
%TO.C,R34*%
X144350000Y-56787500D03*
X144350000Y-58612500D03*
%TD*%
D41*
%TO.C,R33*%
X126687500Y-69660000D03*
X128512500Y-69660000D03*
%TD*%
D42*
%TO.C,R32*%
X69500000Y-49925000D03*
X69500000Y-51750000D03*
%TD*%
%TO.C,R31*%
X69500000Y-46562500D03*
X69500000Y-48387500D03*
%TD*%
D45*
%TO.C,R30*%
X50412500Y-37525000D03*
X48587500Y-37525000D03*
%TD*%
D41*
%TO.C,R29*%
X48587500Y-39075000D03*
X50412500Y-39075000D03*
%TD*%
%TO.C,R28*%
X122337500Y-89740000D03*
X124162500Y-89740000D03*
%TD*%
%TO.C,R27*%
X122337500Y-87230000D03*
X124162500Y-87230000D03*
%TD*%
D46*
%TO.C,R26*%
X83800000Y-42612500D03*
X83800000Y-40787500D03*
%TD*%
D41*
%TO.C,R25*%
X111050000Y-84360000D03*
X112875000Y-84360000D03*
%TD*%
%TO.C,R24*%
X111050000Y-81850000D03*
X112875000Y-81850000D03*
%TD*%
%TO.C,R23*%
X111050000Y-79340000D03*
X112875000Y-79340000D03*
%TD*%
%TO.C,R22*%
X111050000Y-76830000D03*
X112875000Y-76830000D03*
%TD*%
%TO.C,R21*%
X111050000Y-74320000D03*
X112875000Y-74320000D03*
%TD*%
%TO.C,R20*%
X162400000Y-60500000D03*
X164225000Y-60500000D03*
%TD*%
%TO.C,R19*%
X162400000Y-63050000D03*
X164225000Y-63050000D03*
%TD*%
%TO.C,R18*%
X164200000Y-66850000D03*
X162375000Y-66850000D03*
%TD*%
%TO.C,R17*%
X162425000Y-69400000D03*
X164250000Y-69400000D03*
%TD*%
%TO.C,R16*%
X106700000Y-81850000D03*
X108525000Y-81850000D03*
%TD*%
%TO.C,R15*%
X106700000Y-79340000D03*
X108525000Y-79340000D03*
%TD*%
%TO.C,R14*%
X106700000Y-76830000D03*
X108525000Y-76830000D03*
%TD*%
%TO.C,R13*%
X106700000Y-74320000D03*
X108525000Y-74320000D03*
%TD*%
%TO.C,R12*%
X106700000Y-71810000D03*
X108525000Y-71810000D03*
%TD*%
%TO.C,R11*%
X106700000Y-69300000D03*
X108525000Y-69300000D03*
%TD*%
%TO.C,R10*%
X102350000Y-86870000D03*
X104175000Y-86870000D03*
%TD*%
D46*
%TO.C,R9*%
X158900000Y-62312500D03*
X158900000Y-60487500D03*
%TD*%
D45*
%TO.C,R8*%
X187612500Y-70450000D03*
X185787500Y-70450000D03*
%TD*%
%TO.C,R7*%
X187562500Y-64650000D03*
X185737500Y-64650000D03*
%TD*%
D41*
%TO.C,R6*%
X179587500Y-61750000D03*
X181412500Y-61750000D03*
%TD*%
%TO.C,R5*%
X179450000Y-68150000D03*
X181275000Y-68150000D03*
%TD*%
%TO.C,R4*%
X64200000Y-71300000D03*
X66025000Y-71300000D03*
%TD*%
%TO.C,R3*%
X67750000Y-71300000D03*
X69575000Y-71300000D03*
%TD*%
D45*
%TO.C,R2*%
X46362500Y-90900000D03*
X44537500Y-90900000D03*
%TD*%
D41*
%TO.C,R1*%
X48337500Y-90900000D03*
X50162500Y-90900000D03*
%TD*%
D47*
%TO.C,J13*%
X29975000Y-45650000D03*
X29975000Y-34650000D03*
D48*
X39975000Y-37650000D03*
D49*
X39975000Y-42650000D03*
%TD*%
D50*
%TO.C,J9*%
X199475000Y-89700000D03*
X199475000Y-85300000D03*
D51*
X196875000Y-89100000D03*
X196875000Y-88300000D03*
X196875000Y-87500000D03*
X196875000Y-86700000D03*
X196875000Y-85900000D03*
D52*
X196875000Y-91900000D03*
X202375000Y-91900000D03*
X196875000Y-83100000D03*
X202375000Y-83100000D03*
%TD*%
D50*
%TO.C,J7*%
X199600000Y-109600000D03*
X199600000Y-105200000D03*
D51*
X197000000Y-109000000D03*
X197000000Y-108200000D03*
X197000000Y-107400000D03*
X197000000Y-106600000D03*
X197000000Y-105800000D03*
D52*
X197000000Y-111800000D03*
X202500000Y-111800000D03*
X197000000Y-103000000D03*
X202500000Y-103000000D03*
%TD*%
D17*
%TO.C,J5*%
X65900000Y-40559432D03*
%TD*%
%TO.C,J4*%
X93596418Y-38917639D03*
%TD*%
%TO.C,J3*%
X98064321Y-54275169D03*
%TD*%
D53*
%TO.C,J2*%
X201200000Y-122100000D03*
D54*
X203200000Y-123700000D03*
D55*
X203200000Y-126200000D03*
%TD*%
D56*
%TO.C,FB2*%
X102387500Y-71810000D03*
X104137500Y-71810000D03*
%TD*%
D27*
%TO.C,FB1*%
X58950000Y-96750000D03*
X57200000Y-96750000D03*
%TD*%
D57*
%TO.C,C50*%
X55450000Y-89887500D03*
X55450000Y-91612500D03*
%TD*%
%TO.C,C49*%
X53800000Y-89887500D03*
X53800000Y-91612500D03*
%TD*%
D58*
%TO.C,C48*%
X72500000Y-122725000D03*
X72500000Y-121000000D03*
%TD*%
%TO.C,C47*%
X71000000Y-122725000D03*
X71000000Y-121000000D03*
%TD*%
%TO.C,C46*%
X69500000Y-122725000D03*
X69500000Y-121000000D03*
%TD*%
D59*
%TO.C,C45*%
X184762500Y-122150000D03*
X183037500Y-122150000D03*
%TD*%
D58*
%TO.C,C44*%
X74000000Y-122725000D03*
X74000000Y-121000000D03*
%TD*%
%TO.C,C42*%
X124400000Y-121400000D03*
X124400000Y-123125000D03*
%TD*%
%TO.C,C41*%
X121380000Y-121405000D03*
X121380000Y-123130000D03*
%TD*%
D59*
%TO.C,C39*%
X186762500Y-82000000D03*
X185037500Y-82000000D03*
%TD*%
D60*
%TO.C,C38*%
X183951151Y-94517380D03*
X185676151Y-94517380D03*
%TD*%
D61*
%TO.C,C37*%
X75150000Y-41150000D03*
X75150000Y-48350000D03*
%TD*%
D60*
%TO.C,C36*%
X86205722Y-81887888D03*
X87930722Y-81887888D03*
%TD*%
D57*
%TO.C,C35*%
X80650000Y-102900000D03*
X80650000Y-104625000D03*
%TD*%
D62*
%TO.C,C34*%
X98550000Y-49000000D03*
X98550000Y-41800000D03*
%TD*%
D58*
%TO.C,C33*%
X104600000Y-46362500D03*
X104600000Y-44637500D03*
%TD*%
D59*
%TO.C,C32*%
X90512500Y-41800000D03*
X88787500Y-41800000D03*
%TD*%
%TO.C,C31*%
X90525000Y-44900000D03*
X88800000Y-44900000D03*
%TD*%
D60*
%TO.C,C30*%
X88787500Y-43350000D03*
X90512500Y-43350000D03*
%TD*%
D57*
%TO.C,C29*%
X83810000Y-45125000D03*
X83810000Y-46850000D03*
%TD*%
D60*
%TO.C,C28*%
X102400000Y-69300000D03*
X104125000Y-69300000D03*
%TD*%
%TO.C,C27*%
X98050000Y-86870000D03*
X99775000Y-86870000D03*
%TD*%
%TO.C,C26*%
X98050000Y-84360000D03*
X99775000Y-84360000D03*
%TD*%
D63*
%TO.C,C25*%
X154479608Y-70112027D03*
X157604608Y-70112027D03*
%TD*%
D60*
%TO.C,C24*%
X154400000Y-68200000D03*
X156125000Y-68200000D03*
%TD*%
D58*
%TO.C,C23*%
X157400000Y-62262500D03*
X157400000Y-60537500D03*
%TD*%
D59*
%TO.C,C22*%
X154162500Y-55450000D03*
X152437500Y-55450000D03*
%TD*%
%TO.C,C21*%
X154162500Y-56950000D03*
X152437500Y-56950000D03*
%TD*%
%TO.C,C20*%
X169062500Y-57400000D03*
X167337500Y-57400000D03*
%TD*%
%TO.C,C19*%
X169062500Y-72500000D03*
X167337500Y-72500000D03*
%TD*%
D63*
%TO.C,C18*%
X185737500Y-55150000D03*
X188862500Y-55150000D03*
%TD*%
D57*
%TO.C,C17*%
X57350000Y-100225000D03*
X57350000Y-98500000D03*
%TD*%
%TO.C,C16*%
X58900000Y-100225000D03*
X58900000Y-98500000D03*
%TD*%
D64*
%TO.C,C15*%
X49317500Y-93750000D03*
X48182500Y-93750000D03*
%TD*%
D58*
%TO.C,C14*%
X46500000Y-96962500D03*
X46500000Y-95237500D03*
%TD*%
D60*
%TO.C,C13*%
X86150000Y-87150000D03*
X87875000Y-87150000D03*
%TD*%
D58*
%TO.C,C12*%
X64150000Y-75750000D03*
X64150000Y-74025000D03*
%TD*%
%TO.C,C11*%
X70150000Y-75700000D03*
X70150000Y-73975000D03*
%TD*%
%TO.C,C10*%
X75150000Y-75675000D03*
X75150000Y-73950000D03*
%TD*%
D60*
%TO.C,C9*%
X86200000Y-80400000D03*
X87925000Y-80400000D03*
%TD*%
%TO.C,C8*%
X87625000Y-92650000D03*
X85900000Y-92650000D03*
%TD*%
D57*
%TO.C,C7*%
X82150000Y-104625000D03*
X82150000Y-102900000D03*
%TD*%
%TO.C,C6*%
X76150000Y-102700000D03*
X76150000Y-104425000D03*
%TD*%
%TO.C,C5*%
X71150000Y-102487500D03*
X71150000Y-104212500D03*
%TD*%
%TO.C,C4*%
X64650000Y-102487500D03*
X64650000Y-104212500D03*
%TD*%
D59*
%TO.C,C3*%
X58912500Y-95150000D03*
X57187500Y-95150000D03*
%TD*%
%TO.C,C2*%
X58612500Y-88050000D03*
X56887500Y-88050000D03*
%TD*%
%TO.C,C1*%
X59062500Y-83150000D03*
X57337500Y-83150000D03*
%TD*%
D58*
%TO.C,C40*%
X122890000Y-121400000D03*
X122890000Y-123125000D03*
%TD*%
%TO.C,C43*%
X125900000Y-121400000D03*
X125900000Y-123125000D03*
%TD*%
M02*
