%TF.GenerationSoftware,KiCad,Pcbnew,8.0.5*%
%TF.CreationDate,2024-09-23T23:51:48+09:00*%
%TF.ProjectId,MCU_Unit,4d43555f-556e-4697-942e-6b696361645f,rev?*%
%TF.SameCoordinates,Original*%
%TF.FileFunction,Copper,L2,Bot*%
%TF.FilePolarity,Positive*%
%FSLAX46Y46*%
G04 Gerber Fmt 4.6, Leading zero omitted, Abs format (unit mm)*
G04 Created by KiCad (PCBNEW 8.0.5) date 2024-09-23 23:51:48*
%MOMM*%
%LPD*%
G01*
G04 APERTURE LIST*
G04 Aperture macros list*
%AMRoundRect*
0 Rectangle with rounded corners*
0 $1 Rounding radius*
0 $2 $3 $4 $5 $6 $7 $8 $9 X,Y pos of 4 corners*
0 Add a 4 corners polygon primitive as box body*
4,1,4,$2,$3,$4,$5,$6,$7,$8,$9,$2,$3,0*
0 Add four circle primitives for the rounded corners*
1,1,$1+$1,$2,$3*
1,1,$1+$1,$4,$5*
1,1,$1+$1,$6,$7*
1,1,$1+$1,$8,$9*
0 Add four rect primitives between the rounded corners*
20,1,$1+$1,$2,$3,$4,$5,0*
20,1,$1+$1,$4,$5,$6,$7,0*
20,1,$1+$1,$6,$7,$8,$9,0*
20,1,$1+$1,$8,$9,$2,$3,0*%
G04 Aperture macros list end*
%TA.AperFunction,ComponentPad*%
%ADD10C,1.500000*%
%TD*%
%TA.AperFunction,ComponentPad*%
%ADD11R,1.700000X1.700000*%
%TD*%
%TA.AperFunction,ComponentPad*%
%ADD12O,1.700000X1.700000*%
%TD*%
%TA.AperFunction,ComponentPad*%
%ADD13R,1.500000X1.500000*%
%TD*%
%TA.AperFunction,ComponentPad*%
%ADD14C,2.300000*%
%TD*%
%TA.AperFunction,ComponentPad*%
%ADD15C,1.600000*%
%TD*%
%TA.AperFunction,ComponentPad*%
%ADD16O,1.600000X1.600000*%
%TD*%
%TA.AperFunction,ComponentPad*%
%ADD17C,1.400000*%
%TD*%
%TA.AperFunction,ComponentPad*%
%ADD18R,3.500000X3.500000*%
%TD*%
%TA.AperFunction,ComponentPad*%
%ADD19C,3.500000*%
%TD*%
%TA.AperFunction,ComponentPad*%
%ADD20RoundRect,0.250000X-0.750000X0.600000X-0.750000X-0.600000X0.750000X-0.600000X0.750000X0.600000X0*%
%TD*%
%TA.AperFunction,ComponentPad*%
%ADD21O,2.000000X1.700000*%
%TD*%
%TA.AperFunction,ViaPad*%
%ADD22C,0.800000*%
%TD*%
%TA.AperFunction,Conductor*%
%ADD23C,0.200000*%
%TD*%
%TA.AperFunction,Conductor*%
%ADD24C,0.100000*%
%TD*%
%TA.AperFunction,Conductor*%
%ADD25C,0.250000*%
%TD*%
G04 APERTURE END LIST*
D10*
%TO.P,S1,1,COM_1*%
%TO.N,GND*%
X35200000Y-92050000D03*
%TO.P,S1,2,COM_2*%
%TO.N,Net-(S1-COM_2)*%
X41700000Y-92050000D03*
%TO.P,S1,3,NO_1*%
%TO.N,unconnected-(S1-NO_1-Pad3)*%
X35200000Y-96550000D03*
%TO.P,S1,4,NO_2*%
%TO.N,unconnected-(S1-NO_2-Pad4)*%
X41700000Y-96550000D03*
%TD*%
D11*
%TO.P,J10,1,Pin_1*%
%TO.N,PD0*%
X94370000Y-128287500D03*
D12*
%TO.P,J10,2,Pin_2*%
%TO.N,PD1*%
X94370000Y-125747500D03*
%TO.P,J10,3,Pin_3*%
%TO.N,PD2*%
X91830000Y-128287500D03*
%TO.P,J10,4,Pin_4*%
%TO.N,PD3*%
X91830000Y-125747500D03*
%TO.P,J10,5,Pin_5*%
%TO.N,PD4*%
X89290000Y-128287500D03*
%TO.P,J10,6,Pin_6*%
%TO.N,PD5*%
X89290000Y-125747500D03*
%TO.P,J10,7,Pin_7*%
%TO.N,PD6*%
X86750000Y-128287500D03*
%TO.P,J10,8,Pin_8*%
%TO.N,PD7*%
X86750000Y-125747500D03*
%TO.P,J10,9,Pin_9*%
%TO.N,PD8*%
X84210000Y-128287500D03*
%TO.P,J10,10,Pin_10*%
%TO.N,PD9*%
X84210000Y-125747500D03*
%TO.P,J10,11,Pin_11*%
%TO.N,PD10*%
X81670000Y-128287500D03*
%TO.P,J10,12,Pin_12*%
%TO.N,PD11*%
X81670000Y-125747500D03*
%TO.P,J10,13,Pin_13*%
%TO.N,PD12*%
X79130000Y-128287500D03*
%TO.P,J10,14,Pin_14*%
%TO.N,PD13*%
X79130000Y-125747500D03*
%TO.P,J10,15,Pin_15*%
%TO.N,PD14*%
X76590000Y-128287500D03*
%TO.P,J10,16,Pin_16*%
%TO.N,PD15*%
X76590000Y-125747500D03*
%TO.P,J10,17,Pin_17*%
%TO.N,+3V3*%
X74050000Y-128287500D03*
%TO.P,J10,18,Pin_18*%
X74050000Y-125747500D03*
%TO.P,J10,19,Pin_19*%
X71510000Y-128287500D03*
%TO.P,J10,20,Pin_20*%
X71510000Y-125747500D03*
%TO.P,J10,21,Pin_21*%
%TO.N,GND*%
X68970000Y-128287500D03*
%TO.P,J10,22,Pin_22*%
X68970000Y-125747500D03*
%TO.P,J10,23,Pin_23*%
X66430000Y-128287500D03*
%TO.P,J10,24,Pin_24*%
X66430000Y-125747500D03*
%TO.P,J10,25,Pin_25*%
%TO.N,24V_RP*%
X63890000Y-128287500D03*
%TO.P,J10,26,Pin_26*%
X63890000Y-125747500D03*
%TO.P,J10,27,Pin_27*%
X61350000Y-128287500D03*
%TO.P,J10,28,Pin_28*%
X61350000Y-125747500D03*
%TO.P,J10,29,Pin_29*%
X58810000Y-128287500D03*
%TO.P,J10,30,Pin_30*%
X58810000Y-125747500D03*
%TO.P,J10,31,Pin_31*%
X56270000Y-128287500D03*
%TO.P,J10,32,Pin_32*%
X56270000Y-125747500D03*
%TO.P,J10,33,Pin_33*%
%TO.N,GND*%
X53730000Y-128287500D03*
%TO.P,J10,34,Pin_34*%
X53730000Y-125747500D03*
%TO.P,J10,35,Pin_35*%
X51190000Y-128287500D03*
%TO.P,J10,36,Pin_36*%
X51190000Y-125747500D03*
%TO.P,J10,37,Pin_37*%
X48650000Y-128287500D03*
%TO.P,J10,38,Pin_38*%
X48650000Y-125747500D03*
%TO.P,J10,39,Pin_39*%
X46110000Y-128287500D03*
%TO.P,J10,40,Pin_40*%
X46110000Y-125747500D03*
%TD*%
%TO.P,J6,40,Pin_40*%
%TO.N,PF15*%
X97970000Y-125750000D03*
%TO.P,J6,39,Pin_39*%
%TO.N,PF14*%
X97970000Y-128290000D03*
%TO.P,J6,38,Pin_38*%
%TO.N,PF13*%
X100510000Y-125750000D03*
%TO.P,J6,37,Pin_37*%
%TO.N,PF12*%
X100510000Y-128290000D03*
%TO.P,J6,36,Pin_36*%
%TO.N,PF11*%
X103050000Y-125750000D03*
%TO.P,J6,35,Pin_35*%
%TO.N,PF10*%
X103050000Y-128290000D03*
%TO.P,J6,34,Pin_34*%
%TO.N,PF9*%
X105590000Y-125750000D03*
%TO.P,J6,33,Pin_33*%
%TO.N,PF8*%
X105590000Y-128290000D03*
%TO.P,J6,32,Pin_32*%
%TO.N,PF7*%
X108130000Y-125750000D03*
%TO.P,J6,31,Pin_31*%
%TO.N,PF6*%
X108130000Y-128290000D03*
%TO.P,J6,30,Pin_30*%
%TO.N,PF5*%
X110670000Y-125750000D03*
%TO.P,J6,29,Pin_29*%
%TO.N,PF4*%
X110670000Y-128290000D03*
%TO.P,J6,28,Pin_28*%
%TO.N,PF3*%
X113210000Y-125750000D03*
%TO.P,J6,27,Pin_27*%
%TO.N,PF2*%
X113210000Y-128290000D03*
%TO.P,J6,26,Pin_26*%
%TO.N,PF1*%
X115750000Y-125750000D03*
%TO.P,J6,25,Pin_25*%
%TO.N,PF0*%
X115750000Y-128290000D03*
%TO.P,J6,24,Pin_24*%
%TO.N,GND*%
X118290000Y-125750000D03*
%TO.P,J6,23,Pin_23*%
X118290000Y-128290000D03*
%TO.P,J6,22,Pin_22*%
X120830000Y-125750000D03*
%TO.P,J6,21,Pin_21*%
X120830000Y-128290000D03*
%TO.P,J6,20,Pin_20*%
%TO.N,+3V3*%
X123370000Y-125750000D03*
%TO.P,J6,19,Pin_19*%
X123370000Y-128290000D03*
%TO.P,J6,18,Pin_18*%
X125910000Y-125750000D03*
%TO.P,J6,17,Pin_17*%
X125910000Y-128290000D03*
%TO.P,J6,16,Pin_16*%
%TO.N,PG15*%
X128450000Y-125750000D03*
%TO.P,J6,15,Pin_15*%
%TO.N,PG14*%
X128450000Y-128290000D03*
%TO.P,J6,14,Pin_14*%
%TO.N,PG13*%
X130990000Y-125750000D03*
%TO.P,J6,13,Pin_13*%
%TO.N,PG12*%
X130990000Y-128290000D03*
%TO.P,J6,12,Pin_12*%
%TO.N,PG11*%
X133530000Y-125750000D03*
%TO.P,J6,11,Pin_11*%
%TO.N,PG10*%
X133530000Y-128290000D03*
%TO.P,J6,10,Pin_10*%
%TO.N,PG9*%
X136070000Y-125750000D03*
%TO.P,J6,9,Pin_9*%
%TO.N,PG8*%
X136070000Y-128290000D03*
%TO.P,J6,8,Pin_8*%
%TO.N,PG7*%
X138610000Y-125750000D03*
%TO.P,J6,7,Pin_7*%
%TO.N,PG6*%
X138610000Y-128290000D03*
%TO.P,J6,6,Pin_6*%
%TO.N,PG5*%
X141150000Y-125750000D03*
%TO.P,J6,5,Pin_5*%
%TO.N,PG4*%
X141150000Y-128290000D03*
%TO.P,J6,4,Pin_4*%
%TO.N,PG3*%
X143690000Y-125750000D03*
%TO.P,J6,3,Pin_3*%
%TO.N,PG2*%
X143690000Y-128290000D03*
%TO.P,J6,2,Pin_2*%
%TO.N,PG1*%
X146230000Y-125750000D03*
D11*
%TO.P,J6,1,Pin_1*%
%TO.N,PG0*%
X146230000Y-128290000D03*
%TD*%
D13*
%TO.P,J1,1*%
%TO.N,Net-(T1-TX1+)*%
X198630000Y-61588000D03*
D10*
%TO.P,J1,2*%
%TO.N,Net-(T1-TX1-)*%
X196850000Y-62604000D03*
%TO.P,J1,3*%
%TO.N,Net-(T1-RX1+)*%
X198630000Y-63620000D03*
%TO.P,J1,4*%
%TO.N,Net-(J1-Pad4)*%
X196850000Y-64636000D03*
%TO.P,J1,5*%
X198630000Y-65652000D03*
%TO.P,J1,6*%
%TO.N,Net-(T1-RX-)*%
X196850000Y-66668000D03*
%TO.P,J1,7*%
%TO.N,Net-(J1-Pad7)*%
X198630000Y-67684000D03*
%TO.P,J1,8*%
X196850000Y-68700000D03*
D14*
%TO.P,J1,SH*%
%TO.N,Earth*%
X197740000Y-57018000D03*
X197740000Y-73278000D03*
%TD*%
D15*
%TO.P,R41,1*%
%TO.N,Net-(J2-Pin_1)*%
X194500000Y-120120000D03*
D16*
%TO.P,R41,2*%
%TO.N,Net-(J2-Pin_2)*%
X194500000Y-130280000D03*
%TD*%
D17*
%TO.P,J13,*%
%TO.N,*%
X29975000Y-45650000D03*
X29975000Y-34650000D03*
D18*
%TO.P,J13,1,Pin_1*%
%TO.N,GND*%
X39975000Y-37650000D03*
D19*
%TO.P,J13,2,Pin_2*%
%TO.N,Net-(J13-Pin_2)*%
X39975000Y-42650000D03*
%TD*%
D11*
%TO.P,J5,1,Pin_1*%
%TO.N,24V_RP*%
X65900000Y-40559432D03*
%TD*%
%TO.P,J4,1,Pin_1*%
%TO.N,GND*%
X93596418Y-38917639D03*
%TD*%
%TO.P,J3,1,Pin_1*%
%TO.N,+3V3*%
X98064321Y-54275169D03*
%TD*%
D20*
%TO.P,J2,1,Pin_1*%
%TO.N,Net-(J2-Pin_1)*%
X203200000Y-123700000D03*
D21*
%TO.P,J2,2,Pin_2*%
%TO.N,Net-(J2-Pin_2)*%
X203200000Y-126200000D03*
%TD*%
D22*
%TO.N,/Ethernet/RD-*%
X165900000Y-69400000D03*
X160141885Y-64984396D03*
%TO.N,/Ethernet/RD+*%
X165900000Y-66900000D03*
X159144508Y-63580798D03*
%TO.N,Net-(D35-K)*%
X139938248Y-39549252D03*
X138820000Y-37237500D03*
%TO.N,Net-(D27-K)*%
X145700000Y-37887500D03*
X145000000Y-40737500D03*
%TO.N,Net-(D19-K)*%
X148750000Y-39637500D03*
X153300000Y-36937500D03*
%TO.N,Net-(D11-K)*%
X161715380Y-38772120D03*
X160309318Y-36887500D03*
%TO.N,Net-(C18-Pad1)*%
X183800000Y-55800000D03*
X183800000Y-68200000D03*
X183800000Y-64800000D03*
X183800000Y-61800000D03*
X183800000Y-70200000D03*
%TO.N,Net-(J1-Pad4)*%
X190900000Y-64600000D03*
%TD*%
D23*
%TO.N,/Ethernet/RD-*%
X161331218Y-67019430D02*
X161604162Y-66746487D01*
X161469588Y-66312099D02*
X161178745Y-66021256D01*
X164557489Y-69400000D02*
X162278744Y-67121255D01*
X161978930Y-67121255D02*
X161705985Y-67394197D01*
X161406173Y-67394198D02*
X161331219Y-67319244D01*
X161529210Y-66371721D02*
X161469588Y-66312099D01*
X161604161Y-66446673D02*
X161529210Y-66371721D01*
X165900000Y-69400000D02*
X164557489Y-69400000D01*
X161178745Y-66021256D02*
X161178745Y-66021255D01*
X161604162Y-66746487D02*
G75*
G03*
X161604142Y-66446693I-149862J149887D01*
G01*
X161331219Y-67319244D02*
G75*
G02*
X161331181Y-67019393I149881J149944D01*
G01*
X162278744Y-67121255D02*
G75*
G03*
X161978930Y-67121255I-149907J-149902D01*
G01*
X161705985Y-67394197D02*
G75*
G02*
X161406195Y-67394177I-149885J149897D01*
G01*
X161375025Y-66217536D02*
X161298645Y-66141156D01*
X161298645Y-66141156D02*
X160141885Y-64984396D01*
%TO.N,/Ethernet/RD+*%
X160600000Y-64380798D02*
G75*
G02*
X160360002Y-64140798I0J239998D01*
G01*
X160360000Y-63820798D02*
G75*
G03*
X160120000Y-63580800I-240000J-2D01*
G01*
X160960000Y-64140798D02*
G75*
G02*
X160720000Y-64380800I-240000J-2D01*
G01*
X161200000Y-63580798D02*
G75*
G03*
X160959998Y-63820798I0J-240002D01*
G01*
X164900000Y-66900000D02*
X161580798Y-63580798D01*
X160120000Y-63580798D02*
X160000000Y-63580798D01*
X165900000Y-66900000D02*
X164900000Y-66900000D01*
X160960000Y-63820798D02*
X160960000Y-64140798D01*
X159998447Y-63580798D02*
X159144508Y-63580798D01*
X161580798Y-63580798D02*
X161200000Y-63580798D01*
X160000000Y-63580798D02*
X159998447Y-63580798D01*
X160720000Y-64380798D02*
X160600000Y-64380798D01*
X160360000Y-64140798D02*
X160360000Y-63820798D01*
D24*
%TO.N,Net-(D35-K)*%
X138880000Y-37297500D02*
X138880000Y-38491004D01*
X138880000Y-38491004D02*
X139938248Y-39549252D01*
X138820000Y-37237500D02*
X138880000Y-37297500D01*
%TO.N,Net-(D27-K)*%
X145700000Y-40037500D02*
X145700000Y-37887500D01*
X145000000Y-40737500D02*
X145700000Y-40037500D01*
%TO.N,Net-(D19-K)*%
X150850000Y-37537500D02*
X152700000Y-37537500D01*
X152700000Y-37537500D02*
X153300000Y-36937500D01*
X148750000Y-39637500D02*
X150850000Y-37537500D01*
%TO.N,Net-(D11-K)*%
X160309318Y-37366058D02*
X161715380Y-38772120D01*
X160309318Y-36887500D02*
X160309318Y-37366058D01*
D25*
%TO.N,Net-(C18-Pad1)*%
X183800000Y-61800000D02*
X183800000Y-55800000D01*
X183800000Y-68200000D02*
X183800000Y-64800000D01*
X183800000Y-70200000D02*
X183800000Y-68200000D01*
X183800000Y-64800000D02*
X183800000Y-61800000D01*
%TO.N,Net-(J1-Pad4)*%
X190936000Y-64636000D02*
X196850000Y-64636000D01*
X190900000Y-64600000D02*
X190936000Y-64636000D01*
%TD*%
M02*
