%TF.GenerationSoftware,KiCad,Pcbnew,8.0.5*%
%TF.CreationDate,2024-09-29T23:22:26+09:00*%
%TF.ProjectId,MCU_Unit,4d43555f-556e-4697-942e-6b696361645f,rev?*%
%TF.SameCoordinates,Original*%
%TF.FileFunction,Profile,NP*%
%FSLAX46Y46*%
G04 Gerber Fmt 4.6, Leading zero omitted, Abs format (unit mm)*
G04 Created by KiCad (PCBNEW 8.0.5) date 2024-09-29 23:22:26*
%MOMM*%
%LPD*%
G01*
G04 APERTURE LIST*
%TA.AperFunction,Profile*%
%ADD10C,0.100000*%
%TD*%
G04 APERTURE END LIST*
D10*
X161000000Y-40000000D02*
X33000000Y-40000000D01*
X164000000Y-137000000D02*
X164000000Y-43000000D01*
X33003232Y-140003232D02*
X161000000Y-140000000D01*
X30000000Y-43000000D02*
X30000000Y-137000000D01*
X164000000Y-137000000D02*
G75*
G02*
X161000000Y-140000000I-3000000J0D01*
G01*
X161200000Y-135500000D02*
G75*
G02*
X157800000Y-135500000I-1700000J0D01*
G01*
X157800000Y-135500000D02*
G75*
G02*
X161200000Y-135500000I1700000J0D01*
G01*
X161000000Y-40000000D02*
G75*
G02*
X164000000Y-43000000I0J-3000000D01*
G01*
X161200000Y-44500000D02*
G75*
G02*
X157800000Y-44500000I-1700000J0D01*
G01*
X157800000Y-44500000D02*
G75*
G02*
X161200000Y-44500000I1700000J0D01*
G01*
X30000000Y-43000000D02*
G75*
G02*
X33000000Y-40000000I3000000J0D01*
G01*
X36200000Y-44500000D02*
G75*
G02*
X32800000Y-44500000I-1700000J0D01*
G01*
X32800000Y-44500000D02*
G75*
G02*
X36200000Y-44500000I1700000J0D01*
G01*
X33003232Y-140003232D02*
G75*
G02*
X30000000Y-137000000I0J3003232D01*
G01*
X36296768Y-135500000D02*
G75*
G02*
X32703232Y-135500000I-1796768J0D01*
G01*
X32703232Y-135500000D02*
G75*
G02*
X36296768Y-135500000I1796768J0D01*
G01*
X42570000Y-92640000D02*
G75*
G02*
X39030000Y-92640000I-1770000J0D01*
G01*
X39030000Y-92640000D02*
G75*
G02*
X42570000Y-92640000I1770000J0D01*
G01*
X42560000Y-128640000D02*
G75*
G02*
X39060000Y-128640000I-1750000J0D01*
G01*
X39060000Y-128640000D02*
G75*
G02*
X42560000Y-128640000I1750000J0D01*
G01*
M02*
